ply
format ascii 1.0
element vertex 3770
property float x
property float y
property float z
end_header
-30.00 -12.00 -75.00
-30.00 -12.00 -70.00
-30.00 -12.00 -65.00
-30.00 -12.00 -60.00
-30.00 -12.00 -55.00
-30.00 -12.00 -50.00
-30.00 -12.00 -45.00
-30.00 -12.00 -40.00
-30.00 -12.00 -35.00
-30.00 -12.00 -30.00
-30.00 -12.00 -25.00
-30.00 -12.00 -20.00
-30.00 -12.00 -15.00
-30.00 -12.00 -10.00
-30.00 -12.00 -5.00
-30.00 -12.00 0.00
-30.00 -12.00 5.00
-30.00 -12.00 10.00
-30.00 -12.00 15.00
-30.00 -12.00 20.00
-30.00 -12.00 25.00
-30.00 -12.00 30.00
-30.00 -12.00 35.00
-30.00 -12.00 40.00
-30.00 -12.00 45.00
-30.00 -12.00 50.00
-30.00 -12.00 55.00
-30.00 -12.00 60.00
-30.00 -12.00 65.00
-30.00 -8.00 -75.00
-30.00 -8.00 -70.00
-30.00 -8.00 -65.00
-30.00 -8.00 -60.00
-30.00 -8.00 -55.00
-30.00 -8.00 -50.00
-30.00 -8.00 -45.00
-30.00 -8.00 -40.00
-30.00 -8.00 -35.00
-30.00 -8.00 -30.00
-30.00 -8.00 -25.00
-30.00 -8.00 -20.00
-30.00 -8.00 -15.00
-30.00 -8.00 -10.00
-30.00 -8.00 -5.00
-30.00 -8.00 0.00
-30.00 -8.00 5.00
-30.00 -8.00 10.00
-30.00 -8.00 15.00
-30.00 -8.00 20.00
-30.00 -8.00 25.00
-30.00 -8.00 30.00
-30.00 -8.00 35.00
-30.00 -8.00 40.00
-30.00 -8.00 45.00
-30.00 -8.00 50.00
-30.00 -8.00 55.00
-30.00 -8.00 60.00
-30.00 -8.00 65.00
-30.00 -4.00 -75.00
-30.00 -4.00 -70.00
-30.00 -4.00 -65.00
-30.00 -4.00 -60.00
-30.00 -4.00 -55.00
-30.00 -4.00 -50.00
-30.00 -4.00 -45.00
-30.00 -4.00 -40.00
-30.00 -4.00 -35.00
-30.00 -4.00 -30.00
-30.00 -4.00 -25.00
-30.00 -4.00 -20.00
-30.00 -4.00 -15.00
-30.00 -4.00 -10.00
-30.00 -4.00 -5.00
-30.00 -4.00 0.00
-30.00 -4.00 5.00
-30.00 -4.00 10.00
-30.00 -4.00 15.00
-30.00 -4.00 20.00
-30.00 -4.00 25.00
-30.00 -4.00 30.00
-30.00 -4.00 35.00
-30.00 -4.00 40.00
-30.00 -4.00 45.00
-30.00 -4.00 50.00
-30.00 -4.00 55.00
-30.00 -4.00 60.00
-30.00 -4.00 65.00
-30.00 0.00 -75.00
-30.00 0.00 -70.00
-30.00 0.00 -65.00
-30.00 0.00 -60.00
-30.00 0.00 -55.00
-30.00 0.00 -50.00
-30.00 0.00 -45.00
-30.00 0.00 -40.00
-30.00 0.00 -35.00
-30.00 0.00 -30.00
-30.00 0.00 -25.00
-30.00 0.00 -20.00
-30.00 0.00 -15.00
-30.00 0.00 -10.00
-30.00 0.00 -5.00
-30.00 0.00 0.00
-30.00 0.00 5.00
-30.00 0.00 10.00
-30.00 0.00 15.00
-30.00 0.00 20.00
-30.00 0.00 25.00
-30.00 0.00 30.00
-30.00 0.00 35.00
-30.00 0.00 40.00
-30.00 0.00 45.00
-30.00 0.00 50.00
-30.00 0.00 55.00
-30.00 0.00 60.00
-30.00 0.00 65.00
-30.00 4.00 -75.00
-30.00 4.00 -70.00
-30.00 4.00 -65.00
-30.00 4.00 -60.00
-30.00 4.00 -55.00
-30.00 4.00 -50.00
-30.00 4.00 -45.00
-30.00 4.00 -40.00
-30.00 4.00 -35.00
-30.00 4.00 -30.00
-30.00 4.00 -25.00
-30.00 4.00 -20.00
-30.00 4.00 -15.00
-30.00 4.00 -10.00
-30.00 4.00 -5.00
-30.00 4.00 0.00
-30.00 4.00 5.00
-30.00 4.00 10.00
-30.00 4.00 15.00
-30.00 4.00 20.00
-30.00 4.00 25.00
-30.00 4.00 30.00
-30.00 4.00 35.00
-30.00 4.00 40.00
-30.00 4.00 45.00
-30.00 4.00 50.00
-30.00 4.00 55.00
-30.00 4.00 60.00
-30.00 4.00 65.00
-30.00 8.00 -75.00
-30.00 8.00 -70.00
-30.00 8.00 -65.00
-30.00 8.00 -60.00
-30.00 8.00 -55.00
-30.00 8.00 -50.00
-30.00 8.00 -45.00
-30.00 8.00 -40.00
-30.00 8.00 -35.00
-30.00 8.00 -30.00
-30.00 8.00 -25.00
-30.00 8.00 -20.00
-30.00 8.00 -15.00
-30.00 8.00 -10.00
-30.00 8.00 -5.00
-30.00 8.00 0.00
-30.00 8.00 5.00
-30.00 8.00 10.00
-30.00 8.00 15.00
-30.00 8.00 20.00
-30.00 8.00 25.00
-30.00 8.00 30.00
-30.00 8.00 35.00
-30.00 8.00 40.00
-30.00 8.00 45.00
-30.00 8.00 50.00
-30.00 8.00 55.00
-30.00 8.00 60.00
-30.00 8.00 65.00
-30.00 12.00 -75.00
-30.00 12.00 -70.00
-30.00 12.00 -65.00
-30.00 12.00 -60.00
-30.00 12.00 -55.00
-30.00 12.00 -50.00
-30.00 12.00 -45.00
-30.00 12.00 -40.00
-30.00 12.00 -35.00
-30.00 12.00 -30.00
-30.00 12.00 -25.00
-30.00 12.00 -20.00
-30.00 12.00 -15.00
-30.00 12.00 -10.00
-30.00 12.00 -5.00
-30.00 12.00 0.00
-30.00 12.00 5.00
-30.00 12.00 10.00
-30.00 12.00 15.00
-30.00 12.00 20.00
-30.00 12.00 25.00
-30.00 12.00 30.00
-30.00 12.00 35.00
-30.00 12.00 40.00
-30.00 12.00 45.00
-30.00 12.00 50.00
-30.00 12.00 55.00
-30.00 12.00 60.00
-30.00 12.00 65.00
-30.00 16.00 -75.00
-30.00 16.00 -70.00
-30.00 16.00 -65.00
-30.00 16.00 -60.00
-30.00 16.00 -55.00
-30.00 16.00 -50.00
-30.00 16.00 -45.00
-30.00 16.00 -40.00
-30.00 16.00 -35.00
-30.00 16.00 -30.00
-30.00 16.00 -25.00
-30.00 16.00 -20.00
-30.00 16.00 -15.00
-30.00 16.00 -10.00
-30.00 16.00 -5.00
-30.00 16.00 0.00
-30.00 16.00 5.00
-30.00 16.00 10.00
-30.00 16.00 15.00
-30.00 16.00 20.00
-30.00 16.00 25.00
-30.00 16.00 30.00
-30.00 16.00 35.00
-30.00 16.00 40.00
-30.00 16.00 45.00
-30.00 16.00 50.00
-30.00 16.00 55.00
-30.00 16.00 60.00
-30.00 16.00 65.00
-30.00 20.00 -75.00
-30.00 20.00 -70.00
-30.00 20.00 -65.00
-30.00 20.00 -60.00
-30.00 20.00 -55.00
-30.00 20.00 -50.00
-30.00 20.00 -45.00
-30.00 20.00 -40.00
-30.00 20.00 -35.00
-30.00 20.00 -30.00
-30.00 20.00 -25.00
-30.00 20.00 -20.00
-30.00 20.00 -15.00
-30.00 20.00 -10.00
-30.00 20.00 -5.00
-30.00 20.00 0.00
-30.00 20.00 5.00
-30.00 20.00 10.00
-30.00 20.00 15.00
-30.00 20.00 20.00
-30.00 20.00 25.00
-30.00 20.00 30.00
-30.00 20.00 35.00
-30.00 20.00 40.00
-30.00 20.00 45.00
-30.00 20.00 50.00
-30.00 20.00 55.00
-30.00 20.00 60.00
-30.00 20.00 65.00
-30.00 24.00 -75.00
-30.00 24.00 -70.00
-30.00 24.00 -65.00
-30.00 24.00 -60.00
-30.00 24.00 -55.00
-30.00 24.00 -50.00
-30.00 24.00 -45.00
-30.00 24.00 -40.00
-30.00 24.00 -35.00
-30.00 24.00 -30.00
-30.00 24.00 -25.00
-30.00 24.00 -20.00
-30.00 24.00 -15.00
-30.00 24.00 -10.00
-30.00 24.00 -5.00
-30.00 24.00 0.00
-30.00 24.00 5.00
-30.00 24.00 10.00
-30.00 24.00 15.00
-30.00 24.00 20.00
-30.00 24.00 25.00
-30.00 24.00 30.00
-30.00 24.00 35.00
-30.00 24.00 40.00
-30.00 24.00 45.00
-30.00 24.00 50.00
-30.00 24.00 55.00
-30.00 24.00 60.00
-30.00 24.00 65.00
-25.00 -12.00 -75.00
-25.00 -12.00 -70.00
-25.00 -12.00 -65.00
-25.00 -12.00 -60.00
-25.00 -12.00 -55.00
-25.00 -12.00 -50.00
-25.00 -12.00 -45.00
-25.00 -12.00 -40.00
-25.00 -12.00 -35.00
-25.00 -12.00 -30.00
-25.00 -12.00 -25.00
-25.00 -12.00 -20.00
-25.00 -12.00 -15.00
-25.00 -12.00 -10.00
-25.00 -12.00 -5.00
-25.00 -12.00 0.00
-25.00 -12.00 5.00
-25.00 -12.00 10.00
-25.00 -12.00 15.00
-25.00 -12.00 20.00
-25.00 -12.00 25.00
-25.00 -12.00 30.00
-25.00 -12.00 35.00
-25.00 -12.00 40.00
-25.00 -12.00 45.00
-25.00 -12.00 50.00
-25.00 -12.00 55.00
-25.00 -12.00 60.00
-25.00 -12.00 65.00
-25.00 -8.00 -75.00
-25.00 -8.00 -70.00
-25.00 -8.00 -65.00
-25.00 -8.00 -60.00
-25.00 -8.00 -55.00
-25.00 -8.00 -50.00
-25.00 -8.00 -45.00
-25.00 -8.00 -40.00
-25.00 -8.00 -35.00
-25.00 -8.00 -30.00
-25.00 -8.00 -25.00
-25.00 -8.00 -20.00
-25.00 -8.00 -15.00
-25.00 -8.00 -10.00
-25.00 -8.00 -5.00
-25.00 -8.00 0.00
-25.00 -8.00 5.00
-25.00 -8.00 10.00
-25.00 -8.00 15.00
-25.00 -8.00 20.00
-25.00 -8.00 25.00
-25.00 -8.00 30.00
-25.00 -8.00 35.00
-25.00 -8.00 40.00
-25.00 -8.00 45.00
-25.00 -8.00 50.00
-25.00 -8.00 55.00
-25.00 -8.00 60.00
-25.00 -8.00 65.00
-25.00 -4.00 -75.00
-25.00 -4.00 -70.00
-25.00 -4.00 -65.00
-25.00 -4.00 -60.00
-25.00 -4.00 -55.00
-25.00 -4.00 -50.00
-25.00 -4.00 -45.00
-25.00 -4.00 -40.00
-25.00 -4.00 -35.00
-25.00 -4.00 -30.00
-25.00 -4.00 -25.00
-25.00 -4.00 -20.00
-25.00 -4.00 -15.00
-25.00 -4.00 -10.00
-25.00 -4.00 -5.00
-25.00 -4.00 0.00
-25.00 -4.00 5.00
-25.00 -4.00 10.00
-25.00 -4.00 15.00
-25.00 -4.00 20.00
-25.00 -4.00 25.00
-25.00 -4.00 30.00
-25.00 -4.00 35.00
-25.00 -4.00 40.00
-25.00 -4.00 45.00
-25.00 -4.00 50.00
-25.00 -4.00 55.00
-25.00 -4.00 60.00
-25.00 -4.00 65.00
-25.00 0.00 -75.00
-25.00 0.00 -70.00
-25.00 0.00 -65.00
-25.00 0.00 -60.00
-25.00 0.00 -55.00
-25.00 0.00 -50.00
-25.00 0.00 -45.00
-25.00 0.00 -40.00
-25.00 0.00 -35.00
-25.00 0.00 -30.00
-25.00 0.00 -25.00
-25.00 0.00 -20.00
-25.00 0.00 -15.00
-25.00 0.00 -10.00
-25.00 0.00 -5.00
-25.00 0.00 0.00
-25.00 0.00 5.00
-25.00 0.00 10.00
-25.00 0.00 15.00
-25.00 0.00 20.00
-25.00 0.00 25.00
-25.00 0.00 30.00
-25.00 0.00 35.00
-25.00 0.00 40.00
-25.00 0.00 45.00
-25.00 0.00 50.00
-25.00 0.00 55.00
-25.00 0.00 60.00
-25.00 0.00 65.00
-25.00 4.00 -75.00
-25.00 4.00 -70.00
-25.00 4.00 -65.00
-25.00 4.00 -60.00
-25.00 4.00 -55.00
-25.00 4.00 -50.00
-25.00 4.00 -45.00
-25.00 4.00 -40.00
-25.00 4.00 -35.00
-25.00 4.00 -30.00
-25.00 4.00 -25.00
-25.00 4.00 -20.00
-25.00 4.00 -15.00
-25.00 4.00 -10.00
-25.00 4.00 -5.00
-25.00 4.00 0.00
-25.00 4.00 5.00
-25.00 4.00 10.00
-25.00 4.00 15.00
-25.00 4.00 20.00
-25.00 4.00 25.00
-25.00 4.00 30.00
-25.00 4.00 35.00
-25.00 4.00 40.00
-25.00 4.00 45.00
-25.00 4.00 50.00
-25.00 4.00 55.00
-25.00 4.00 60.00
-25.00 4.00 65.00
-25.00 8.00 -75.00
-25.00 8.00 -70.00
-25.00 8.00 -65.00
-25.00 8.00 -60.00
-25.00 8.00 -55.00
-25.00 8.00 -50.00
-25.00 8.00 -45.00
-25.00 8.00 -40.00
-25.00 8.00 -35.00
-25.00 8.00 -30.00
-25.00 8.00 -25.00
-25.00 8.00 -20.00
-25.00 8.00 -15.00
-25.00 8.00 -10.00
-25.00 8.00 -5.00
-25.00 8.00 0.00
-25.00 8.00 5.00
-25.00 8.00 10.00
-25.00 8.00 15.00
-25.00 8.00 20.00
-25.00 8.00 25.00
-25.00 8.00 30.00
-25.00 8.00 35.00
-25.00 8.00 40.00
-25.00 8.00 45.00
-25.00 8.00 50.00
-25.00 8.00 55.00
-25.00 8.00 60.00
-25.00 8.00 65.00
-25.00 12.00 -75.00
-25.00 12.00 -70.00
-25.00 12.00 -65.00
-25.00 12.00 -60.00
-25.00 12.00 -55.00
-25.00 12.00 -50.00
-25.00 12.00 -45.00
-25.00 12.00 -40.00
-25.00 12.00 -35.00
-25.00 12.00 -30.00
-25.00 12.00 -25.00
-25.00 12.00 -20.00
-25.00 12.00 -15.00
-25.00 12.00 -10.00
-25.00 12.00 -5.00
-25.00 12.00 0.00
-25.00 12.00 5.00
-25.00 12.00 10.00
-25.00 12.00 15.00
-25.00 12.00 20.00
-25.00 12.00 25.00
-25.00 12.00 30.00
-25.00 12.00 35.00
-25.00 12.00 40.00
-25.00 12.00 45.00
-25.00 12.00 50.00
-25.00 12.00 55.00
-25.00 12.00 60.00
-25.00 12.00 65.00
-25.00 16.00 -75.00
-25.00 16.00 -70.00
-25.00 16.00 -65.00
-25.00 16.00 -60.00
-25.00 16.00 -55.00
-25.00 16.00 -50.00
-25.00 16.00 -45.00
-25.00 16.00 -40.00
-25.00 16.00 -35.00
-25.00 16.00 -30.00
-25.00 16.00 -25.00
-25.00 16.00 -20.00
-25.00 16.00 -15.00
-25.00 16.00 -10.00
-25.00 16.00 -5.00
-25.00 16.00 0.00
-25.00 16.00 5.00
-25.00 16.00 10.00
-25.00 16.00 15.00
-25.00 16.00 20.00
-25.00 16.00 25.00
-25.00 16.00 30.00
-25.00 16.00 35.00
-25.00 16.00 40.00
-25.00 16.00 45.00
-25.00 16.00 50.00
-25.00 16.00 55.00
-25.00 16.00 60.00
-25.00 16.00 65.00
-25.00 20.00 -75.00
-25.00 20.00 -70.00
-25.00 20.00 -65.00
-25.00 20.00 -60.00
-25.00 20.00 -55.00
-25.00 20.00 -50.00
-25.00 20.00 -45.00
-25.00 20.00 -40.00
-25.00 20.00 -35.00
-25.00 20.00 -30.00
-25.00 20.00 -25.00
-25.00 20.00 -20.00
-25.00 20.00 -15.00
-25.00 20.00 -10.00
-25.00 20.00 -5.00
-25.00 20.00 0.00
-25.00 20.00 5.00
-25.00 20.00 10.00
-25.00 20.00 15.00
-25.00 20.00 20.00
-25.00 20.00 25.00
-25.00 20.00 30.00
-25.00 20.00 35.00
-25.00 20.00 40.00
-25.00 20.00 45.00
-25.00 20.00 50.00
-25.00 20.00 55.00
-25.00 20.00 60.00
-25.00 20.00 65.00
-25.00 24.00 -75.00
-25.00 24.00 -70.00
-25.00 24.00 -65.00
-25.00 24.00 -60.00
-25.00 24.00 -55.00
-25.00 24.00 -50.00
-25.00 24.00 -45.00
-25.00 24.00 -40.00
-25.00 24.00 -35.00
-25.00 24.00 -30.00
-25.00 24.00 -25.00
-25.00 24.00 -20.00
-25.00 24.00 -15.00
-25.00 24.00 -10.00
-25.00 24.00 -5.00
-25.00 24.00 0.00
-25.00 24.00 5.00
-25.00 24.00 10.00
-25.00 24.00 15.00
-25.00 24.00 20.00
-25.00 24.00 25.00
-25.00 24.00 30.00
-25.00 24.00 35.00
-25.00 24.00 40.00
-25.00 24.00 45.00
-25.00 24.00 50.00
-25.00 24.00 55.00
-25.00 24.00 60.00
-25.00 24.00 65.00
-20.00 -12.00 -75.00
-20.00 -12.00 -70.00
-20.00 -12.00 -65.00
-20.00 -12.00 -60.00
-20.00 -12.00 -55.00
-20.00 -12.00 -50.00
-20.00 -12.00 -45.00
-20.00 -12.00 -40.00
-20.00 -12.00 -35.00
-20.00 -12.00 -30.00
-20.00 -12.00 -25.00
-20.00 -12.00 -20.00
-20.00 -12.00 -15.00
-20.00 -12.00 -10.00
-20.00 -12.00 -5.00
-20.00 -12.00 0.00
-20.00 -12.00 5.00
-20.00 -12.00 10.00
-20.00 -12.00 15.00
-20.00 -12.00 20.00
-20.00 -12.00 25.00
-20.00 -12.00 30.00
-20.00 -12.00 35.00
-20.00 -12.00 40.00
-20.00 -12.00 45.00
-20.00 -12.00 50.00
-20.00 -12.00 55.00
-20.00 -12.00 60.00
-20.00 -12.00 65.00
-20.00 -8.00 -75.00
-20.00 -8.00 -70.00
-20.00 -8.00 -65.00
-20.00 -8.00 -60.00
-20.00 -8.00 -55.00
-20.00 -8.00 -50.00
-20.00 -8.00 -45.00
-20.00 -8.00 -40.00
-20.00 -8.00 -35.00
-20.00 -8.00 -30.00
-20.00 -8.00 -25.00
-20.00 -8.00 -20.00
-20.00 -8.00 -15.00
-20.00 -8.00 -10.00
-20.00 -8.00 -5.00
-20.00 -8.00 0.00
-20.00 -8.00 5.00
-20.00 -8.00 10.00
-20.00 -8.00 15.00
-20.00 -8.00 20.00
-20.00 -8.00 25.00
-20.00 -8.00 30.00
-20.00 -8.00 35.00
-20.00 -8.00 40.00
-20.00 -8.00 45.00
-20.00 -8.00 50.00
-20.00 -8.00 55.00
-20.00 -8.00 60.00
-20.00 -8.00 65.00
-20.00 -4.00 -75.00
-20.00 -4.00 -70.00
-20.00 -4.00 -65.00
-20.00 -4.00 -60.00
-20.00 -4.00 -55.00
-20.00 -4.00 -50.00
-20.00 -4.00 -45.00
-20.00 -4.00 -40.00
-20.00 -4.00 -35.00
-20.00 -4.00 -30.00
-20.00 -4.00 -25.00
-20.00 -4.00 -20.00
-20.00 -4.00 -15.00
-20.00 -4.00 -10.00
-20.00 -4.00 -5.00
-20.00 -4.00 0.00
-20.00 -4.00 5.00
-20.00 -4.00 10.00
-20.00 -4.00 15.00
-20.00 -4.00 20.00
-20.00 -4.00 25.00
-20.00 -4.00 30.00
-20.00 -4.00 35.00
-20.00 -4.00 40.00
-20.00 -4.00 45.00
-20.00 -4.00 50.00
-20.00 -4.00 55.00
-20.00 -4.00 60.00
-20.00 -4.00 65.00
-20.00 0.00 -75.00
-20.00 0.00 -70.00
-20.00 0.00 -65.00
-20.00 0.00 -60.00
-20.00 0.00 -55.00
-20.00 0.00 -50.00
-20.00 0.00 -45.00
-20.00 0.00 -40.00
-20.00 0.00 -35.00
-20.00 0.00 -30.00
-20.00 0.00 -25.00
-20.00 0.00 -20.00
-20.00 0.00 -15.00
-20.00 0.00 -10.00
-20.00 0.00 -5.00
-20.00 0.00 0.00
-20.00 0.00 5.00
-20.00 0.00 10.00
-20.00 0.00 15.00
-20.00 0.00 20.00
-20.00 0.00 25.00
-20.00 0.00 30.00
-20.00 0.00 35.00
-20.00 0.00 40.00
-20.00 0.00 45.00
-20.00 0.00 50.00
-20.00 0.00 55.00
-20.00 0.00 60.00
-20.00 0.00 65.00
-20.00 4.00 -75.00
-20.00 4.00 -70.00
-20.00 4.00 -65.00
-20.00 4.00 -60.00
-20.00 4.00 -55.00
-20.00 4.00 -50.00
-20.00 4.00 -45.00
-20.00 4.00 -40.00
-20.00 4.00 -35.00
-20.00 4.00 -30.00
-20.00 4.00 -25.00
-20.00 4.00 -20.00
-20.00 4.00 -15.00
-20.00 4.00 -10.00
-20.00 4.00 -5.00
-20.00 4.00 0.00
-20.00 4.00 5.00
-20.00 4.00 10.00
-20.00 4.00 15.00
-20.00 4.00 20.00
-20.00 4.00 25.00
-20.00 4.00 30.00
-20.00 4.00 35.00
-20.00 4.00 40.00
-20.00 4.00 45.00
-20.00 4.00 50.00
-20.00 4.00 55.00
-20.00 4.00 60.00
-20.00 4.00 65.00
-20.00 8.00 -75.00
-20.00 8.00 -70.00
-20.00 8.00 -65.00
-20.00 8.00 -60.00
-20.00 8.00 -55.00
-20.00 8.00 -50.00
-20.00 8.00 -45.00
-20.00 8.00 -40.00
-20.00 8.00 -35.00
-20.00 8.00 -30.00
-20.00 8.00 -25.00
-20.00 8.00 -20.00
-20.00 8.00 -15.00
-20.00 8.00 -10.00
-20.00 8.00 -5.00
-20.00 8.00 0.00
-20.00 8.00 5.00
-20.00 8.00 10.00
-20.00 8.00 15.00
-20.00 8.00 20.00
-20.00 8.00 25.00
-20.00 8.00 30.00
-20.00 8.00 35.00
-20.00 8.00 40.00
-20.00 8.00 45.00
-20.00 8.00 50.00
-20.00 8.00 55.00
-20.00 8.00 60.00
-20.00 8.00 65.00
-20.00 12.00 -75.00
-20.00 12.00 -70.00
-20.00 12.00 -65.00
-20.00 12.00 -60.00
-20.00 12.00 -55.00
-20.00 12.00 -50.00
-20.00 12.00 -45.00
-20.00 12.00 -40.00
-20.00 12.00 -35.00
-20.00 12.00 -30.00
-20.00 12.00 -25.00
-20.00 12.00 -20.00
-20.00 12.00 -15.00
-20.00 12.00 -10.00
-20.00 12.00 -5.00
-20.00 12.00 0.00
-20.00 12.00 5.00
-20.00 12.00 10.00
-20.00 12.00 15.00
-20.00 12.00 20.00
-20.00 12.00 25.00
-20.00 12.00 30.00
-20.00 12.00 35.00
-20.00 12.00 40.00
-20.00 12.00 45.00
-20.00 12.00 50.00
-20.00 12.00 55.00
-20.00 12.00 60.00
-20.00 12.00 65.00
-20.00 16.00 -75.00
-20.00 16.00 -70.00
-20.00 16.00 -65.00
-20.00 16.00 -60.00
-20.00 16.00 -55.00
-20.00 16.00 -50.00
-20.00 16.00 -45.00
-20.00 16.00 -40.00
-20.00 16.00 -35.00
-20.00 16.00 -30.00
-20.00 16.00 -25.00
-20.00 16.00 -20.00
-20.00 16.00 -15.00
-20.00 16.00 -10.00
-20.00 16.00 -5.00
-20.00 16.00 0.00
-20.00 16.00 5.00
-20.00 16.00 10.00
-20.00 16.00 15.00
-20.00 16.00 20.00
-20.00 16.00 25.00
-20.00 16.00 30.00
-20.00 16.00 35.00
-20.00 16.00 40.00
-20.00 16.00 45.00
-20.00 16.00 50.00
-20.00 16.00 55.00
-20.00 16.00 60.00
-20.00 16.00 65.00
-20.00 20.00 -75.00
-20.00 20.00 -70.00
-20.00 20.00 -65.00
-20.00 20.00 -60.00
-20.00 20.00 -55.00
-20.00 20.00 -50.00
-20.00 20.00 -45.00
-20.00 20.00 -40.00
-20.00 20.00 -35.00
-20.00 20.00 -30.00
-20.00 20.00 -25.00
-20.00 20.00 -20.00
-20.00 20.00 -15.00
-20.00 20.00 -10.00
-20.00 20.00 -5.00
-20.00 20.00 0.00
-20.00 20.00 5.00
-20.00 20.00 10.00
-20.00 20.00 15.00
-20.00 20.00 20.00
-20.00 20.00 25.00
-20.00 20.00 30.00
-20.00 20.00 35.00
-20.00 20.00 40.00
-20.00 20.00 45.00
-20.00 20.00 50.00
-20.00 20.00 55.00
-20.00 20.00 60.00
-20.00 20.00 65.00
-20.00 24.00 -75.00
-20.00 24.00 -70.00
-20.00 24.00 -65.00
-20.00 24.00 -60.00
-20.00 24.00 -55.00
-20.00 24.00 -50.00
-20.00 24.00 -45.00
-20.00 24.00 -40.00
-20.00 24.00 -35.00
-20.00 24.00 -30.00
-20.00 24.00 -25.00
-20.00 24.00 -20.00
-20.00 24.00 -15.00
-20.00 24.00 -10.00
-20.00 24.00 -5.00
-20.00 24.00 0.00
-20.00 24.00 5.00
-20.00 24.00 10.00
-20.00 24.00 15.00
-20.00 24.00 20.00
-20.00 24.00 25.00
-20.00 24.00 30.00
-20.00 24.00 35.00
-20.00 24.00 40.00
-20.00 24.00 45.00
-20.00 24.00 50.00
-20.00 24.00 55.00
-20.00 24.00 60.00
-20.00 24.00 65.00
-15.00 -12.00 -75.00
-15.00 -12.00 -70.00
-15.00 -12.00 -65.00
-15.00 -12.00 -60.00
-15.00 -12.00 -55.00
-15.00 -12.00 -50.00
-15.00 -12.00 -45.00
-15.00 -12.00 -40.00
-15.00 -12.00 -35.00
-15.00 -12.00 -30.00
-15.00 -12.00 -25.00
-15.00 -12.00 -20.00
-15.00 -12.00 -15.00
-15.00 -12.00 -10.00
-15.00 -12.00 -5.00
-15.00 -12.00 0.00
-15.00 -12.00 5.00
-15.00 -12.00 10.00
-15.00 -12.00 15.00
-15.00 -12.00 20.00
-15.00 -12.00 25.00
-15.00 -12.00 30.00
-15.00 -12.00 35.00
-15.00 -12.00 40.00
-15.00 -12.00 45.00
-15.00 -12.00 50.00
-15.00 -12.00 55.00
-15.00 -12.00 60.00
-15.00 -12.00 65.00
-15.00 -8.00 -75.00
-15.00 -8.00 -70.00
-15.00 -8.00 -65.00
-15.00 -8.00 -60.00
-15.00 -8.00 -55.00
-15.00 -8.00 -50.00
-15.00 -8.00 -45.00
-15.00 -8.00 -40.00
-15.00 -8.00 -35.00
-15.00 -8.00 -30.00
-15.00 -8.00 -25.00
-15.00 -8.00 -20.00
-15.00 -8.00 -15.00
-15.00 -8.00 -10.00
-15.00 -8.00 -5.00
-15.00 -8.00 0.00
-15.00 -8.00 5.00
-15.00 -8.00 10.00
-15.00 -8.00 15.00
-15.00 -8.00 20.00
-15.00 -8.00 25.00
-15.00 -8.00 30.00
-15.00 -8.00 35.00
-15.00 -8.00 40.00
-15.00 -8.00 45.00
-15.00 -8.00 50.00
-15.00 -8.00 55.00
-15.00 -8.00 60.00
-15.00 -8.00 65.00
-15.00 -4.00 -75.00
-15.00 -4.00 -70.00
-15.00 -4.00 -65.00
-15.00 -4.00 -60.00
-15.00 -4.00 -55.00
-15.00 -4.00 -50.00
-15.00 -4.00 -45.00
-15.00 -4.00 -40.00
-15.00 -4.00 -35.00
-15.00 -4.00 -30.00
-15.00 -4.00 -25.00
-15.00 -4.00 -20.00
-15.00 -4.00 -15.00
-15.00 -4.00 -10.00
-15.00 -4.00 -5.00
-15.00 -4.00 0.00
-15.00 -4.00 5.00
-15.00 -4.00 10.00
-15.00 -4.00 15.00
-15.00 -4.00 20.00
-15.00 -4.00 25.00
-15.00 -4.00 30.00
-15.00 -4.00 35.00
-15.00 -4.00 40.00
-15.00 -4.00 45.00
-15.00 -4.00 50.00
-15.00 -4.00 55.00
-15.00 -4.00 60.00
-15.00 -4.00 65.00
-15.00 0.00 -75.00
-15.00 0.00 -70.00
-15.00 0.00 -65.00
-15.00 0.00 -60.00
-15.00 0.00 -55.00
-15.00 0.00 -50.00
-15.00 0.00 -45.00
-15.00 0.00 -40.00
-15.00 0.00 -35.00
-15.00 0.00 -30.00
-15.00 0.00 -25.00
-15.00 0.00 -20.00
-15.00 0.00 -15.00
-15.00 0.00 -10.00
-15.00 0.00 -5.00
-15.00 0.00 0.00
-15.00 0.00 5.00
-15.00 0.00 10.00
-15.00 0.00 15.00
-15.00 0.00 20.00
-15.00 0.00 25.00
-15.00 0.00 30.00
-15.00 0.00 35.00
-15.00 0.00 40.00
-15.00 0.00 45.00
-15.00 0.00 50.00
-15.00 0.00 55.00
-15.00 0.00 60.00
-15.00 0.00 65.00
-15.00 4.00 -75.00
-15.00 4.00 -70.00
-15.00 4.00 -65.00
-15.00 4.00 -60.00
-15.00 4.00 -55.00
-15.00 4.00 -50.00
-15.00 4.00 -45.00
-15.00 4.00 -40.00
-15.00 4.00 -35.00
-15.00 4.00 -30.00
-15.00 4.00 -25.00
-15.00 4.00 -20.00
-15.00 4.00 -15.00
-15.00 4.00 -10.00
-15.00 4.00 -5.00
-15.00 4.00 0.00
-15.00 4.00 5.00
-15.00 4.00 10.00
-15.00 4.00 15.00
-15.00 4.00 20.00
-15.00 4.00 25.00
-15.00 4.00 30.00
-15.00 4.00 35.00
-15.00 4.00 40.00
-15.00 4.00 45.00
-15.00 4.00 50.00
-15.00 4.00 55.00
-15.00 4.00 60.00
-15.00 4.00 65.00
-15.00 8.00 -75.00
-15.00 8.00 -70.00
-15.00 8.00 -65.00
-15.00 8.00 -60.00
-15.00 8.00 -55.00
-15.00 8.00 -50.00
-15.00 8.00 -45.00
-15.00 8.00 -40.00
-15.00 8.00 -35.00
-15.00 8.00 -30.00
-15.00 8.00 -25.00
-15.00 8.00 -20.00
-15.00 8.00 -15.00
-15.00 8.00 -10.00
-15.00 8.00 -5.00
-15.00 8.00 0.00
-15.00 8.00 5.00
-15.00 8.00 10.00
-15.00 8.00 15.00
-15.00 8.00 20.00
-15.00 8.00 25.00
-15.00 8.00 30.00
-15.00 8.00 35.00
-15.00 8.00 40.00
-15.00 8.00 45.00
-15.00 8.00 50.00
-15.00 8.00 55.00
-15.00 8.00 60.00
-15.00 8.00 65.00
-15.00 12.00 -75.00
-15.00 12.00 -70.00
-15.00 12.00 -65.00
-15.00 12.00 -60.00
-15.00 12.00 -55.00
-15.00 12.00 -50.00
-15.00 12.00 -45.00
-15.00 12.00 -40.00
-15.00 12.00 -35.00
-15.00 12.00 -30.00
-15.00 12.00 -25.00
-15.00 12.00 -20.00
-15.00 12.00 -15.00
-15.00 12.00 -10.00
-15.00 12.00 -5.00
-15.00 12.00 0.00
-15.00 12.00 5.00
-15.00 12.00 10.00
-15.00 12.00 15.00
-15.00 12.00 20.00
-15.00 12.00 25.00
-15.00 12.00 30.00
-15.00 12.00 35.00
-15.00 12.00 40.00
-15.00 12.00 45.00
-15.00 12.00 50.00
-15.00 12.00 55.00
-15.00 12.00 60.00
-15.00 12.00 65.00
-15.00 16.00 -75.00
-15.00 16.00 -70.00
-15.00 16.00 -65.00
-15.00 16.00 -60.00
-15.00 16.00 -55.00
-15.00 16.00 -50.00
-15.00 16.00 -45.00
-15.00 16.00 -40.00
-15.00 16.00 -35.00
-15.00 16.00 -30.00
-15.00 16.00 -25.00
-15.00 16.00 -20.00
-15.00 16.00 -15.00
-15.00 16.00 -10.00
-15.00 16.00 -5.00
-15.00 16.00 0.00
-15.00 16.00 5.00
-15.00 16.00 10.00
-15.00 16.00 15.00
-15.00 16.00 20.00
-15.00 16.00 25.00
-15.00 16.00 30.00
-15.00 16.00 35.00
-15.00 16.00 40.00
-15.00 16.00 45.00
-15.00 16.00 50.00
-15.00 16.00 55.00
-15.00 16.00 60.00
-15.00 16.00 65.00
-15.00 20.00 -75.00
-15.00 20.00 -70.00
-15.00 20.00 -65.00
-15.00 20.00 -60.00
-15.00 20.00 -55.00
-15.00 20.00 -50.00
-15.00 20.00 -45.00
-15.00 20.00 -40.00
-15.00 20.00 -35.00
-15.00 20.00 -30.00
-15.00 20.00 -25.00
-15.00 20.00 -20.00
-15.00 20.00 -15.00
-15.00 20.00 -10.00
-15.00 20.00 -5.00
-15.00 20.00 0.00
-15.00 20.00 5.00
-15.00 20.00 10.00
-15.00 20.00 15.00
-15.00 20.00 20.00
-15.00 20.00 25.00
-15.00 20.00 30.00
-15.00 20.00 35.00
-15.00 20.00 40.00
-15.00 20.00 45.00
-15.00 20.00 50.00
-15.00 20.00 55.00
-15.00 20.00 60.00
-15.00 20.00 65.00
-15.00 24.00 -75.00
-15.00 24.00 -70.00
-15.00 24.00 -65.00
-15.00 24.00 -60.00
-15.00 24.00 -55.00
-15.00 24.00 -50.00
-15.00 24.00 -45.00
-15.00 24.00 -40.00
-15.00 24.00 -35.00
-15.00 24.00 -30.00
-15.00 24.00 -25.00
-15.00 24.00 -20.00
-15.00 24.00 -15.00
-15.00 24.00 -10.00
-15.00 24.00 -5.00
-15.00 24.00 0.00
-15.00 24.00 5.00
-15.00 24.00 10.00
-15.00 24.00 15.00
-15.00 24.00 20.00
-15.00 24.00 25.00
-15.00 24.00 30.00
-15.00 24.00 35.00
-15.00 24.00 40.00
-15.00 24.00 45.00
-15.00 24.00 50.00
-15.00 24.00 55.00
-15.00 24.00 60.00
-15.00 24.00 65.00
-10.00 -12.00 -75.00
-10.00 -12.00 -70.00
-10.00 -12.00 -65.00
-10.00 -12.00 -60.00
-10.00 -12.00 -55.00
-10.00 -12.00 -50.00
-10.00 -12.00 -45.00
-10.00 -12.00 -40.00
-10.00 -12.00 -35.00
-10.00 -12.00 -30.00
-10.00 -12.00 -25.00
-10.00 -12.00 -20.00
-10.00 -12.00 -15.00
-10.00 -12.00 -10.00
-10.00 -12.00 -5.00
-10.00 -12.00 0.00
-10.00 -12.00 5.00
-10.00 -12.00 10.00
-10.00 -12.00 15.00
-10.00 -12.00 20.00
-10.00 -12.00 25.00
-10.00 -12.00 30.00
-10.00 -12.00 35.00
-10.00 -12.00 40.00
-10.00 -12.00 45.00
-10.00 -12.00 50.00
-10.00 -12.00 55.00
-10.00 -12.00 60.00
-10.00 -12.00 65.00
-10.00 -8.00 -75.00
-10.00 -8.00 -70.00
-10.00 -8.00 -65.00
-10.00 -8.00 -60.00
-10.00 -8.00 -55.00
-10.00 -8.00 -50.00
-10.00 -8.00 -45.00
-10.00 -8.00 -40.00
-10.00 -8.00 -35.00
-10.00 -8.00 -30.00
-10.00 -8.00 -25.00
-10.00 -8.00 -20.00
-10.00 -8.00 -15.00
-10.00 -8.00 -10.00
-10.00 -8.00 -5.00
-10.00 -8.00 0.00
-10.00 -8.00 5.00
-10.00 -8.00 10.00
-10.00 -8.00 15.00
-10.00 -8.00 20.00
-10.00 -8.00 25.00
-10.00 -8.00 30.00
-10.00 -8.00 35.00
-10.00 -8.00 40.00
-10.00 -8.00 45.00
-10.00 -8.00 50.00
-10.00 -8.00 55.00
-10.00 -8.00 60.00
-10.00 -8.00 65.00
-10.00 -4.00 -75.00
-10.00 -4.00 -70.00
-10.00 -4.00 -65.00
-10.00 -4.00 -60.00
-10.00 -4.00 -55.00
-10.00 -4.00 -50.00
-10.00 -4.00 -45.00
-10.00 -4.00 -40.00
-10.00 -4.00 -35.00
-10.00 -4.00 -30.00
-10.00 -4.00 -25.00
-10.00 -4.00 -20.00
-10.00 -4.00 -15.00
-10.00 -4.00 -10.00
-10.00 -4.00 -5.00
-10.00 -4.00 0.00
-10.00 -4.00 5.00
-10.00 -4.00 10.00
-10.00 -4.00 15.00
-10.00 -4.00 20.00
-10.00 -4.00 25.00
-10.00 -4.00 30.00
-10.00 -4.00 35.00
-10.00 -4.00 40.00
-10.00 -4.00 45.00
-10.00 -4.00 50.00
-10.00 -4.00 55.00
-10.00 -4.00 60.00
-10.00 -4.00 65.00
-10.00 0.00 -75.00
-10.00 0.00 -70.00
-10.00 0.00 -65.00
-10.00 0.00 -60.00
-10.00 0.00 -55.00
-10.00 0.00 -50.00
-10.00 0.00 -45.00
-10.00 0.00 -40.00
-10.00 0.00 -35.00
-10.00 0.00 -30.00
-10.00 0.00 -25.00
-10.00 0.00 -20.00
-10.00 0.00 -15.00
-10.00 0.00 -10.00
-10.00 0.00 -5.00
-10.00 0.00 0.00
-10.00 0.00 5.00
-10.00 0.00 10.00
-10.00 0.00 15.00
-10.00 0.00 20.00
-10.00 0.00 25.00
-10.00 0.00 30.00
-10.00 0.00 35.00
-10.00 0.00 40.00
-10.00 0.00 45.00
-10.00 0.00 50.00
-10.00 0.00 55.00
-10.00 0.00 60.00
-10.00 0.00 65.00
-10.00 4.00 -75.00
-10.00 4.00 -70.00
-10.00 4.00 -65.00
-10.00 4.00 -60.00
-10.00 4.00 -55.00
-10.00 4.00 -50.00
-10.00 4.00 -45.00
-10.00 4.00 -40.00
-10.00 4.00 -35.00
-10.00 4.00 -30.00
-10.00 4.00 -25.00
-10.00 4.00 -20.00
-10.00 4.00 -15.00
-10.00 4.00 -10.00
-10.00 4.00 -5.00
-10.00 4.00 0.00
-10.00 4.00 5.00
-10.00 4.00 10.00
-10.00 4.00 15.00
-10.00 4.00 20.00
-10.00 4.00 25.00
-10.00 4.00 30.00
-10.00 4.00 35.00
-10.00 4.00 40.00
-10.00 4.00 45.00
-10.00 4.00 50.00
-10.00 4.00 55.00
-10.00 4.00 60.00
-10.00 4.00 65.00
-10.00 8.00 -75.00
-10.00 8.00 -70.00
-10.00 8.00 -65.00
-10.00 8.00 -60.00
-10.00 8.00 -55.00
-10.00 8.00 -50.00
-10.00 8.00 -45.00
-10.00 8.00 -40.00
-10.00 8.00 -35.00
-10.00 8.00 -30.00
-10.00 8.00 -25.00
-10.00 8.00 -20.00
-10.00 8.00 -15.00
-10.00 8.00 -10.00
-10.00 8.00 -5.00
-10.00 8.00 0.00
-10.00 8.00 5.00
-10.00 8.00 10.00
-10.00 8.00 15.00
-10.00 8.00 20.00
-10.00 8.00 25.00
-10.00 8.00 30.00
-10.00 8.00 35.00
-10.00 8.00 40.00
-10.00 8.00 45.00
-10.00 8.00 50.00
-10.00 8.00 55.00
-10.00 8.00 60.00
-10.00 8.00 65.00
-10.00 12.00 -75.00
-10.00 12.00 -70.00
-10.00 12.00 -65.00
-10.00 12.00 -60.00
-10.00 12.00 -55.00
-10.00 12.00 -50.00
-10.00 12.00 -45.00
-10.00 12.00 -40.00
-10.00 12.00 -35.00
-10.00 12.00 -30.00
-10.00 12.00 -25.00
-10.00 12.00 -20.00
-10.00 12.00 -15.00
-10.00 12.00 -10.00
-10.00 12.00 -5.00
-10.00 12.00 0.00
-10.00 12.00 5.00
-10.00 12.00 10.00
-10.00 12.00 15.00
-10.00 12.00 20.00
-10.00 12.00 25.00
-10.00 12.00 30.00
-10.00 12.00 35.00
-10.00 12.00 40.00
-10.00 12.00 45.00
-10.00 12.00 50.00
-10.00 12.00 55.00
-10.00 12.00 60.00
-10.00 12.00 65.00
-10.00 16.00 -75.00
-10.00 16.00 -70.00
-10.00 16.00 -65.00
-10.00 16.00 -60.00
-10.00 16.00 -55.00
-10.00 16.00 -50.00
-10.00 16.00 -45.00
-10.00 16.00 -40.00
-10.00 16.00 -35.00
-10.00 16.00 -30.00
-10.00 16.00 -25.00
-10.00 16.00 -20.00
-10.00 16.00 -15.00
-10.00 16.00 -10.00
-10.00 16.00 -5.00
-10.00 16.00 0.00
-10.00 16.00 5.00
-10.00 16.00 10.00
-10.00 16.00 15.00
-10.00 16.00 20.00
-10.00 16.00 25.00
-10.00 16.00 30.00
-10.00 16.00 35.00
-10.00 16.00 40.00
-10.00 16.00 45.00
-10.00 16.00 50.00
-10.00 16.00 55.00
-10.00 16.00 60.00
-10.00 16.00 65.00
-10.00 20.00 -75.00
-10.00 20.00 -70.00
-10.00 20.00 -65.00
-10.00 20.00 -60.00
-10.00 20.00 -55.00
-10.00 20.00 -50.00
-10.00 20.00 -45.00
-10.00 20.00 -40.00
-10.00 20.00 -35.00
-10.00 20.00 -30.00
-10.00 20.00 -25.00
-10.00 20.00 -20.00
-10.00 20.00 -15.00
-10.00 20.00 -10.00
-10.00 20.00 -5.00
-10.00 20.00 0.00
-10.00 20.00 5.00
-10.00 20.00 10.00
-10.00 20.00 15.00
-10.00 20.00 20.00
-10.00 20.00 25.00
-10.00 20.00 30.00
-10.00 20.00 35.00
-10.00 20.00 40.00
-10.00 20.00 45.00
-10.00 20.00 50.00
-10.00 20.00 55.00
-10.00 20.00 60.00
-10.00 20.00 65.00
-10.00 24.00 -75.00
-10.00 24.00 -70.00
-10.00 24.00 -65.00
-10.00 24.00 -60.00
-10.00 24.00 -55.00
-10.00 24.00 -50.00
-10.00 24.00 -45.00
-10.00 24.00 -40.00
-10.00 24.00 -35.00
-10.00 24.00 -30.00
-10.00 24.00 -25.00
-10.00 24.00 -20.00
-10.00 24.00 -15.00
-10.00 24.00 -10.00
-10.00 24.00 -5.00
-10.00 24.00 0.00
-10.00 24.00 5.00
-10.00 24.00 10.00
-10.00 24.00 15.00
-10.00 24.00 20.00
-10.00 24.00 25.00
-10.00 24.00 30.00
-10.00 24.00 35.00
-10.00 24.00 40.00
-10.00 24.00 45.00
-10.00 24.00 50.00
-10.00 24.00 55.00
-10.00 24.00 60.00
-10.00 24.00 65.00
-5.00 -12.00 -75.00
-5.00 -12.00 -70.00
-5.00 -12.00 -65.00
-5.00 -12.00 -60.00
-5.00 -12.00 -55.00
-5.00 -12.00 -50.00
-5.00 -12.00 -45.00
-5.00 -12.00 -40.00
-5.00 -12.00 -35.00
-5.00 -12.00 -30.00
-5.00 -12.00 -25.00
-5.00 -12.00 -20.00
-5.00 -12.00 -15.00
-5.00 -12.00 -10.00
-5.00 -12.00 -5.00
-5.00 -12.00 0.00
-5.00 -12.00 5.00
-5.00 -12.00 10.00
-5.00 -12.00 15.00
-5.00 -12.00 20.00
-5.00 -12.00 25.00
-5.00 -12.00 30.00
-5.00 -12.00 35.00
-5.00 -12.00 40.00
-5.00 -12.00 45.00
-5.00 -12.00 50.00
-5.00 -12.00 55.00
-5.00 -12.00 60.00
-5.00 -12.00 65.00
-5.00 -8.00 -75.00
-5.00 -8.00 -70.00
-5.00 -8.00 -65.00
-5.00 -8.00 -60.00
-5.00 -8.00 -55.00
-5.00 -8.00 -50.00
-5.00 -8.00 -45.00
-5.00 -8.00 -40.00
-5.00 -8.00 -35.00
-5.00 -8.00 -30.00
-5.00 -8.00 -25.00
-5.00 -8.00 -20.00
-5.00 -8.00 -15.00
-5.00 -8.00 -10.00
-5.00 -8.00 -5.00
-5.00 -8.00 0.00
-5.00 -8.00 5.00
-5.00 -8.00 10.00
-5.00 -8.00 15.00
-5.00 -8.00 20.00
-5.00 -8.00 25.00
-5.00 -8.00 30.00
-5.00 -8.00 35.00
-5.00 -8.00 40.00
-5.00 -8.00 45.00
-5.00 -8.00 50.00
-5.00 -8.00 55.00
-5.00 -8.00 60.00
-5.00 -8.00 65.00
-5.00 -4.00 -75.00
-5.00 -4.00 -70.00
-5.00 -4.00 -65.00
-5.00 -4.00 -60.00
-5.00 -4.00 -55.00
-5.00 -4.00 -50.00
-5.00 -4.00 -45.00
-5.00 -4.00 -40.00
-5.00 -4.00 -35.00
-5.00 -4.00 -30.00
-5.00 -4.00 -25.00
-5.00 -4.00 -20.00
-5.00 -4.00 -15.00
-5.00 -4.00 -10.00
-5.00 -4.00 -5.00
-5.00 -4.00 0.00
-5.00 -4.00 5.00
-5.00 -4.00 10.00
-5.00 -4.00 15.00
-5.00 -4.00 20.00
-5.00 -4.00 25.00
-5.00 -4.00 30.00
-5.00 -4.00 35.00
-5.00 -4.00 40.00
-5.00 -4.00 45.00
-5.00 -4.00 50.00
-5.00 -4.00 55.00
-5.00 -4.00 60.00
-5.00 -4.00 65.00
-5.00 0.00 -75.00
-5.00 0.00 -70.00
-5.00 0.00 -65.00
-5.00 0.00 -60.00
-5.00 0.00 -55.00
-5.00 0.00 -50.00
-5.00 0.00 -45.00
-5.00 0.00 -40.00
-5.00 0.00 -35.00
-5.00 0.00 -30.00
-5.00 0.00 -25.00
-5.00 0.00 -20.00
-5.00 0.00 -15.00
-5.00 0.00 -10.00
-5.00 0.00 -5.00
-5.00 0.00 0.00
-5.00 0.00 5.00
-5.00 0.00 10.00
-5.00 0.00 15.00
-5.00 0.00 20.00
-5.00 0.00 25.00
-5.00 0.00 30.00
-5.00 0.00 35.00
-5.00 0.00 40.00
-5.00 0.00 45.00
-5.00 0.00 50.00
-5.00 0.00 55.00
-5.00 0.00 60.00
-5.00 0.00 65.00
-5.00 4.00 -75.00
-5.00 4.00 -70.00
-5.00 4.00 -65.00
-5.00 4.00 -60.00
-5.00 4.00 -55.00
-5.00 4.00 -50.00
-5.00 4.00 -45.00
-5.00 4.00 -40.00
-5.00 4.00 -35.00
-5.00 4.00 -30.00
-5.00 4.00 -25.00
-5.00 4.00 -20.00
-5.00 4.00 -15.00
-5.00 4.00 -10.00
-5.00 4.00 -5.00
-5.00 4.00 0.00
-5.00 4.00 5.00
-5.00 4.00 10.00
-5.00 4.00 15.00
-5.00 4.00 20.00
-5.00 4.00 25.00
-5.00 4.00 30.00
-5.00 4.00 35.00
-5.00 4.00 40.00
-5.00 4.00 45.00
-5.00 4.00 50.00
-5.00 4.00 55.00
-5.00 4.00 60.00
-5.00 4.00 65.00
-5.00 8.00 -75.00
-5.00 8.00 -70.00
-5.00 8.00 -65.00
-5.00 8.00 -60.00
-5.00 8.00 -55.00
-5.00 8.00 -50.00
-5.00 8.00 -45.00
-5.00 8.00 -40.00
-5.00 8.00 -35.00
-5.00 8.00 -30.00
-5.00 8.00 -25.00
-5.00 8.00 -20.00
-5.00 8.00 -15.00
-5.00 8.00 -10.00
-5.00 8.00 -5.00
-5.00 8.00 0.00
-5.00 8.00 5.00
-5.00 8.00 10.00
-5.00 8.00 15.00
-5.00 8.00 20.00
-5.00 8.00 25.00
-5.00 8.00 30.00
-5.00 8.00 35.00
-5.00 8.00 40.00
-5.00 8.00 45.00
-5.00 8.00 50.00
-5.00 8.00 55.00
-5.00 8.00 60.00
-5.00 8.00 65.00
-5.00 12.00 -75.00
-5.00 12.00 -70.00
-5.00 12.00 -65.00
-5.00 12.00 -60.00
-5.00 12.00 -55.00
-5.00 12.00 -50.00
-5.00 12.00 -45.00
-5.00 12.00 -40.00
-5.00 12.00 -35.00
-5.00 12.00 -30.00
-5.00 12.00 -25.00
-5.00 12.00 -20.00
-5.00 12.00 -15.00
-5.00 12.00 -10.00
-5.00 12.00 -5.00
-5.00 12.00 0.00
-5.00 12.00 5.00
-5.00 12.00 10.00
-5.00 12.00 15.00
-5.00 12.00 20.00
-5.00 12.00 25.00
-5.00 12.00 30.00
-5.00 12.00 35.00
-5.00 12.00 40.00
-5.00 12.00 45.00
-5.00 12.00 50.00
-5.00 12.00 55.00
-5.00 12.00 60.00
-5.00 12.00 65.00
-5.00 16.00 -75.00
-5.00 16.00 -70.00
-5.00 16.00 -65.00
-5.00 16.00 -60.00
-5.00 16.00 -55.00
-5.00 16.00 -50.00
-5.00 16.00 -45.00
-5.00 16.00 -40.00
-5.00 16.00 -35.00
-5.00 16.00 -30.00
-5.00 16.00 -25.00
-5.00 16.00 -20.00
-5.00 16.00 -15.00
-5.00 16.00 -10.00
-5.00 16.00 -5.00
-5.00 16.00 0.00
-5.00 16.00 5.00
-5.00 16.00 10.00
-5.00 16.00 15.00
-5.00 16.00 20.00
-5.00 16.00 25.00
-5.00 16.00 30.00
-5.00 16.00 35.00
-5.00 16.00 40.00
-5.00 16.00 45.00
-5.00 16.00 50.00
-5.00 16.00 55.00
-5.00 16.00 60.00
-5.00 16.00 65.00
-5.00 20.00 -75.00
-5.00 20.00 -70.00
-5.00 20.00 -65.00
-5.00 20.00 -60.00
-5.00 20.00 -55.00
-5.00 20.00 -50.00
-5.00 20.00 -45.00
-5.00 20.00 -40.00
-5.00 20.00 -35.00
-5.00 20.00 -30.00
-5.00 20.00 -25.00
-5.00 20.00 -20.00
-5.00 20.00 -15.00
-5.00 20.00 -10.00
-5.00 20.00 -5.00
-5.00 20.00 0.00
-5.00 20.00 5.00
-5.00 20.00 10.00
-5.00 20.00 15.00
-5.00 20.00 20.00
-5.00 20.00 25.00
-5.00 20.00 30.00
-5.00 20.00 35.00
-5.00 20.00 40.00
-5.00 20.00 45.00
-5.00 20.00 50.00
-5.00 20.00 55.00
-5.00 20.00 60.00
-5.00 20.00 65.00
-5.00 24.00 -75.00
-5.00 24.00 -70.00
-5.00 24.00 -65.00
-5.00 24.00 -60.00
-5.00 24.00 -55.00
-5.00 24.00 -50.00
-5.00 24.00 -45.00
-5.00 24.00 -40.00
-5.00 24.00 -35.00
-5.00 24.00 -30.00
-5.00 24.00 -25.00
-5.00 24.00 -20.00
-5.00 24.00 -15.00
-5.00 24.00 -10.00
-5.00 24.00 -5.00
-5.00 24.00 0.00
-5.00 24.00 5.00
-5.00 24.00 10.00
-5.00 24.00 15.00
-5.00 24.00 20.00
-5.00 24.00 25.00
-5.00 24.00 30.00
-5.00 24.00 35.00
-5.00 24.00 40.00
-5.00 24.00 45.00
-5.00 24.00 50.00
-5.00 24.00 55.00
-5.00 24.00 60.00
-5.00 24.00 65.00
0.00 -12.00 -75.00
0.00 -12.00 -70.00
0.00 -12.00 -65.00
0.00 -12.00 -60.00
0.00 -12.00 -55.00
0.00 -12.00 -50.00
0.00 -12.00 -45.00
0.00 -12.00 -40.00
0.00 -12.00 -35.00
0.00 -12.00 -30.00
0.00 -12.00 -25.00
0.00 -12.00 -20.00
0.00 -12.00 -15.00
0.00 -12.00 -10.00
0.00 -12.00 -5.00
0.00 -12.00 0.00
0.00 -12.00 5.00
0.00 -12.00 10.00
0.00 -12.00 15.00
0.00 -12.00 20.00
0.00 -12.00 25.00
0.00 -12.00 30.00
0.00 -12.00 35.00
0.00 -12.00 40.00
0.00 -12.00 45.00
0.00 -12.00 50.00
0.00 -12.00 55.00
0.00 -12.00 60.00
0.00 -12.00 65.00
0.00 -8.00 -75.00
0.00 -8.00 -70.00
0.00 -8.00 -65.00
0.00 -8.00 -60.00
0.00 -8.00 -55.00
0.00 -8.00 -50.00
0.00 -8.00 -45.00
0.00 -8.00 -40.00
0.00 -8.00 -35.00
0.00 -8.00 -30.00
0.00 -8.00 -25.00
0.00 -8.00 -20.00
0.00 -8.00 -15.00
0.00 -8.00 -10.00
0.00 -8.00 -5.00
0.00 -8.00 0.00
0.00 -8.00 5.00
0.00 -8.00 10.00
0.00 -8.00 15.00
0.00 -8.00 20.00
0.00 -8.00 25.00
0.00 -8.00 30.00
0.00 -8.00 35.00
0.00 -8.00 40.00
0.00 -8.00 45.00
0.00 -8.00 50.00
0.00 -8.00 55.00
0.00 -8.00 60.00
0.00 -8.00 65.00
0.00 -4.00 -75.00
0.00 -4.00 -70.00
0.00 -4.00 -65.00
0.00 -4.00 -60.00
0.00 -4.00 -55.00
0.00 -4.00 -50.00
0.00 -4.00 -45.00
0.00 -4.00 -40.00
0.00 -4.00 -35.00
0.00 -4.00 -30.00
0.00 -4.00 -25.00
0.00 -4.00 -20.00
0.00 -4.00 -15.00
0.00 -4.00 -10.00
0.00 -4.00 -5.00
0.00 -4.00 0.00
0.00 -4.00 5.00
0.00 -4.00 10.00
0.00 -4.00 15.00
0.00 -4.00 20.00
0.00 -4.00 25.00
0.00 -4.00 30.00
0.00 -4.00 35.00
0.00 -4.00 40.00
0.00 -4.00 45.00
0.00 -4.00 50.00
0.00 -4.00 55.00
0.00 -4.00 60.00
0.00 -4.00 65.00
0.00 0.00 -75.00
0.00 0.00 -70.00
0.00 0.00 -65.00
0.00 0.00 -60.00
0.00 0.00 -55.00
0.00 0.00 -50.00
0.00 0.00 -45.00
0.00 0.00 -40.00
0.00 0.00 -35.00
0.00 0.00 -30.00
0.00 0.00 -25.00
0.00 0.00 -20.00
0.00 0.00 -15.00
0.00 0.00 -10.00
0.00 0.00 -5.00
0.00 0.00 0.00
0.00 0.00 5.00
0.00 0.00 10.00
0.00 0.00 15.00
0.00 0.00 20.00
0.00 0.00 25.00
0.00 0.00 30.00
0.00 0.00 35.00
0.00 0.00 40.00
0.00 0.00 45.00
0.00 0.00 50.00
0.00 0.00 55.00
0.00 0.00 60.00
0.00 0.00 65.00
0.00 4.00 -75.00
0.00 4.00 -70.00
0.00 4.00 -65.00
0.00 4.00 -60.00
0.00 4.00 -55.00
0.00 4.00 -50.00
0.00 4.00 -45.00
0.00 4.00 -40.00
0.00 4.00 -35.00
0.00 4.00 -30.00
0.00 4.00 -25.00
0.00 4.00 -20.00
0.00 4.00 -15.00
0.00 4.00 -10.00
0.00 4.00 -5.00
0.00 4.00 0.00
0.00 4.00 5.00
0.00 4.00 10.00
0.00 4.00 15.00
0.00 4.00 20.00
0.00 4.00 25.00
0.00 4.00 30.00
0.00 4.00 35.00
0.00 4.00 40.00
0.00 4.00 45.00
0.00 4.00 50.00
0.00 4.00 55.00
0.00 4.00 60.00
0.00 4.00 65.00
0.00 8.00 -75.00
0.00 8.00 -70.00
0.00 8.00 -65.00
0.00 8.00 -60.00
0.00 8.00 -55.00
0.00 8.00 -50.00
0.00 8.00 -45.00
0.00 8.00 -40.00
0.00 8.00 -35.00
0.00 8.00 -30.00
0.00 8.00 -25.00
0.00 8.00 -20.00
0.00 8.00 -15.00
0.00 8.00 -10.00
0.00 8.00 -5.00
0.00 8.00 0.00
0.00 8.00 5.00
0.00 8.00 10.00
0.00 8.00 15.00
0.00 8.00 20.00
0.00 8.00 25.00
0.00 8.00 30.00
0.00 8.00 35.00
0.00 8.00 40.00
0.00 8.00 45.00
0.00 8.00 50.00
0.00 8.00 55.00
0.00 8.00 60.00
0.00 8.00 65.00
0.00 12.00 -75.00
0.00 12.00 -70.00
0.00 12.00 -65.00
0.00 12.00 -60.00
0.00 12.00 -55.00
0.00 12.00 -50.00
0.00 12.00 -45.00
0.00 12.00 -40.00
0.00 12.00 -35.00
0.00 12.00 -30.00
0.00 12.00 -25.00
0.00 12.00 -20.00
0.00 12.00 -15.00
0.00 12.00 -10.00
0.00 12.00 -5.00
0.00 12.00 0.00
0.00 12.00 5.00
0.00 12.00 10.00
0.00 12.00 15.00
0.00 12.00 20.00
0.00 12.00 25.00
0.00 12.00 30.00
0.00 12.00 35.00
0.00 12.00 40.00
0.00 12.00 45.00
0.00 12.00 50.00
0.00 12.00 55.00
0.00 12.00 60.00
0.00 12.00 65.00
0.00 16.00 -75.00
0.00 16.00 -70.00
0.00 16.00 -65.00
0.00 16.00 -60.00
0.00 16.00 -55.00
0.00 16.00 -50.00
0.00 16.00 -45.00
0.00 16.00 -40.00
0.00 16.00 -35.00
0.00 16.00 -30.00
0.00 16.00 -25.00
0.00 16.00 -20.00
0.00 16.00 -15.00
0.00 16.00 -10.00
0.00 16.00 -5.00
0.00 16.00 0.00
0.00 16.00 5.00
0.00 16.00 10.00
0.00 16.00 15.00
0.00 16.00 20.00
0.00 16.00 25.00
0.00 16.00 30.00
0.00 16.00 35.00
0.00 16.00 40.00
0.00 16.00 45.00
0.00 16.00 50.00
0.00 16.00 55.00
0.00 16.00 60.00
0.00 16.00 65.00
0.00 20.00 -75.00
0.00 20.00 -70.00
0.00 20.00 -65.00
0.00 20.00 -60.00
0.00 20.00 -55.00
0.00 20.00 -50.00
0.00 20.00 -45.00
0.00 20.00 -40.00
0.00 20.00 -35.00
0.00 20.00 -30.00
0.00 20.00 -25.00
0.00 20.00 -20.00
0.00 20.00 -15.00
0.00 20.00 -10.00
0.00 20.00 -5.00
0.00 20.00 0.00
0.00 20.00 5.00
0.00 20.00 10.00
0.00 20.00 15.00
0.00 20.00 20.00
0.00 20.00 25.00
0.00 20.00 30.00
0.00 20.00 35.00
0.00 20.00 40.00
0.00 20.00 45.00
0.00 20.00 50.00
0.00 20.00 55.00
0.00 20.00 60.00
0.00 20.00 65.00
0.00 24.00 -75.00
0.00 24.00 -70.00
0.00 24.00 -65.00
0.00 24.00 -60.00
0.00 24.00 -55.00
0.00 24.00 -50.00
0.00 24.00 -45.00
0.00 24.00 -40.00
0.00 24.00 -35.00
0.00 24.00 -30.00
0.00 24.00 -25.00
0.00 24.00 -20.00
0.00 24.00 -15.00
0.00 24.00 -10.00
0.00 24.00 -5.00
0.00 24.00 0.00
0.00 24.00 5.00
0.00 24.00 10.00
0.00 24.00 15.00
0.00 24.00 20.00
0.00 24.00 25.00
0.00 24.00 30.00
0.00 24.00 35.00
0.00 24.00 40.00
0.00 24.00 45.00
0.00 24.00 50.00
0.00 24.00 55.00
0.00 24.00 60.00
0.00 24.00 65.00
5.00 -12.00 -75.00
5.00 -12.00 -70.00
5.00 -12.00 -65.00
5.00 -12.00 -60.00
5.00 -12.00 -55.00
5.00 -12.00 -50.00
5.00 -12.00 -45.00
5.00 -12.00 -40.00
5.00 -12.00 -35.00
5.00 -12.00 -30.00
5.00 -12.00 -25.00
5.00 -12.00 -20.00
5.00 -12.00 -15.00
5.00 -12.00 -10.00
5.00 -12.00 -5.00
5.00 -12.00 0.00
5.00 -12.00 5.00
5.00 -12.00 10.00
5.00 -12.00 15.00
5.00 -12.00 20.00
5.00 -12.00 25.00
5.00 -12.00 30.00
5.00 -12.00 35.00
5.00 -12.00 40.00
5.00 -12.00 45.00
5.00 -12.00 50.00
5.00 -12.00 55.00
5.00 -12.00 60.00
5.00 -12.00 65.00
5.00 -8.00 -75.00
5.00 -8.00 -70.00
5.00 -8.00 -65.00
5.00 -8.00 -60.00
5.00 -8.00 -55.00
5.00 -8.00 -50.00
5.00 -8.00 -45.00
5.00 -8.00 -40.00
5.00 -8.00 -35.00
5.00 -8.00 -30.00
5.00 -8.00 -25.00
5.00 -8.00 -20.00
5.00 -8.00 -15.00
5.00 -8.00 -10.00
5.00 -8.00 -5.00
5.00 -8.00 0.00
5.00 -8.00 5.00
5.00 -8.00 10.00
5.00 -8.00 15.00
5.00 -8.00 20.00
5.00 -8.00 25.00
5.00 -8.00 30.00
5.00 -8.00 35.00
5.00 -8.00 40.00
5.00 -8.00 45.00
5.00 -8.00 50.00
5.00 -8.00 55.00
5.00 -8.00 60.00
5.00 -8.00 65.00
5.00 -4.00 -75.00
5.00 -4.00 -70.00
5.00 -4.00 -65.00
5.00 -4.00 -60.00
5.00 -4.00 -55.00
5.00 -4.00 -50.00
5.00 -4.00 -45.00
5.00 -4.00 -40.00
5.00 -4.00 -35.00
5.00 -4.00 -30.00
5.00 -4.00 -25.00
5.00 -4.00 -20.00
5.00 -4.00 -15.00
5.00 -4.00 -10.00
5.00 -4.00 -5.00
5.00 -4.00 0.00
5.00 -4.00 5.00
5.00 -4.00 10.00
5.00 -4.00 15.00
5.00 -4.00 20.00
5.00 -4.00 25.00
5.00 -4.00 30.00
5.00 -4.00 35.00
5.00 -4.00 40.00
5.00 -4.00 45.00
5.00 -4.00 50.00
5.00 -4.00 55.00
5.00 -4.00 60.00
5.00 -4.00 65.00
5.00 0.00 -75.00
5.00 0.00 -70.00
5.00 0.00 -65.00
5.00 0.00 -60.00
5.00 0.00 -55.00
5.00 0.00 -50.00
5.00 0.00 -45.00
5.00 0.00 -40.00
5.00 0.00 -35.00
5.00 0.00 -30.00
5.00 0.00 -25.00
5.00 0.00 -20.00
5.00 0.00 -15.00
5.00 0.00 -10.00
5.00 0.00 -5.00
5.00 0.00 0.00
5.00 0.00 5.00
5.00 0.00 10.00
5.00 0.00 15.00
5.00 0.00 20.00
5.00 0.00 25.00
5.00 0.00 30.00
5.00 0.00 35.00
5.00 0.00 40.00
5.00 0.00 45.00
5.00 0.00 50.00
5.00 0.00 55.00
5.00 0.00 60.00
5.00 0.00 65.00
5.00 4.00 -75.00
5.00 4.00 -70.00
5.00 4.00 -65.00
5.00 4.00 -60.00
5.00 4.00 -55.00
5.00 4.00 -50.00
5.00 4.00 -45.00
5.00 4.00 -40.00
5.00 4.00 -35.00
5.00 4.00 -30.00
5.00 4.00 -25.00
5.00 4.00 -20.00
5.00 4.00 -15.00
5.00 4.00 -10.00
5.00 4.00 -5.00
5.00 4.00 0.00
5.00 4.00 5.00
5.00 4.00 10.00
5.00 4.00 15.00
5.00 4.00 20.00
5.00 4.00 25.00
5.00 4.00 30.00
5.00 4.00 35.00
5.00 4.00 40.00
5.00 4.00 45.00
5.00 4.00 50.00
5.00 4.00 55.00
5.00 4.00 60.00
5.00 4.00 65.00
5.00 8.00 -75.00
5.00 8.00 -70.00
5.00 8.00 -65.00
5.00 8.00 -60.00
5.00 8.00 -55.00
5.00 8.00 -50.00
5.00 8.00 -45.00
5.00 8.00 -40.00
5.00 8.00 -35.00
5.00 8.00 -30.00
5.00 8.00 -25.00
5.00 8.00 -20.00
5.00 8.00 -15.00
5.00 8.00 -10.00
5.00 8.00 -5.00
5.00 8.00 0.00
5.00 8.00 5.00
5.00 8.00 10.00
5.00 8.00 15.00
5.00 8.00 20.00
5.00 8.00 25.00
5.00 8.00 30.00
5.00 8.00 35.00
5.00 8.00 40.00
5.00 8.00 45.00
5.00 8.00 50.00
5.00 8.00 55.00
5.00 8.00 60.00
5.00 8.00 65.00
5.00 12.00 -75.00
5.00 12.00 -70.00
5.00 12.00 -65.00
5.00 12.00 -60.00
5.00 12.00 -55.00
5.00 12.00 -50.00
5.00 12.00 -45.00
5.00 12.00 -40.00
5.00 12.00 -35.00
5.00 12.00 -30.00
5.00 12.00 -25.00
5.00 12.00 -20.00
5.00 12.00 -15.00
5.00 12.00 -10.00
5.00 12.00 -5.00
5.00 12.00 0.00
5.00 12.00 5.00
5.00 12.00 10.00
5.00 12.00 15.00
5.00 12.00 20.00
5.00 12.00 25.00
5.00 12.00 30.00
5.00 12.00 35.00
5.00 12.00 40.00
5.00 12.00 45.00
5.00 12.00 50.00
5.00 12.00 55.00
5.00 12.00 60.00
5.00 12.00 65.00
5.00 16.00 -75.00
5.00 16.00 -70.00
5.00 16.00 -65.00
5.00 16.00 -60.00
5.00 16.00 -55.00
5.00 16.00 -50.00
5.00 16.00 -45.00
5.00 16.00 -40.00
5.00 16.00 -35.00
5.00 16.00 -30.00
5.00 16.00 -25.00
5.00 16.00 -20.00
5.00 16.00 -15.00
5.00 16.00 -10.00
5.00 16.00 -5.00
5.00 16.00 0.00
5.00 16.00 5.00
5.00 16.00 10.00
5.00 16.00 15.00
5.00 16.00 20.00
5.00 16.00 25.00
5.00 16.00 30.00
5.00 16.00 35.00
5.00 16.00 40.00
5.00 16.00 45.00
5.00 16.00 50.00
5.00 16.00 55.00
5.00 16.00 60.00
5.00 16.00 65.00
5.00 20.00 -75.00
5.00 20.00 -70.00
5.00 20.00 -65.00
5.00 20.00 -60.00
5.00 20.00 -55.00
5.00 20.00 -50.00
5.00 20.00 -45.00
5.00 20.00 -40.00
5.00 20.00 -35.00
5.00 20.00 -30.00
5.00 20.00 -25.00
5.00 20.00 -20.00
5.00 20.00 -15.00
5.00 20.00 -10.00
5.00 20.00 -5.00
5.00 20.00 0.00
5.00 20.00 5.00
5.00 20.00 10.00
5.00 20.00 15.00
5.00 20.00 20.00
5.00 20.00 25.00
5.00 20.00 30.00
5.00 20.00 35.00
5.00 20.00 40.00
5.00 20.00 45.00
5.00 20.00 50.00
5.00 20.00 55.00
5.00 20.00 60.00
5.00 20.00 65.00
5.00 24.00 -75.00
5.00 24.00 -70.00
5.00 24.00 -65.00
5.00 24.00 -60.00
5.00 24.00 -55.00
5.00 24.00 -50.00
5.00 24.00 -45.00
5.00 24.00 -40.00
5.00 24.00 -35.00
5.00 24.00 -30.00
5.00 24.00 -25.00
5.00 24.00 -20.00
5.00 24.00 -15.00
5.00 24.00 -10.00
5.00 24.00 -5.00
5.00 24.00 0.00
5.00 24.00 5.00
5.00 24.00 10.00
5.00 24.00 15.00
5.00 24.00 20.00
5.00 24.00 25.00
5.00 24.00 30.00
5.00 24.00 35.00
5.00 24.00 40.00
5.00 24.00 45.00
5.00 24.00 50.00
5.00 24.00 55.00
5.00 24.00 60.00
5.00 24.00 65.00
10.00 -12.00 -75.00
10.00 -12.00 -70.00
10.00 -12.00 -65.00
10.00 -12.00 -60.00
10.00 -12.00 -55.00
10.00 -12.00 -50.00
10.00 -12.00 -45.00
10.00 -12.00 -40.00
10.00 -12.00 -35.00
10.00 -12.00 -30.00
10.00 -12.00 -25.00
10.00 -12.00 -20.00
10.00 -12.00 -15.00
10.00 -12.00 -10.00
10.00 -12.00 -5.00
10.00 -12.00 0.00
10.00 -12.00 5.00
10.00 -12.00 10.00
10.00 -12.00 15.00
10.00 -12.00 20.00
10.00 -12.00 25.00
10.00 -12.00 30.00
10.00 -12.00 35.00
10.00 -12.00 40.00
10.00 -12.00 45.00
10.00 -12.00 50.00
10.00 -12.00 55.00
10.00 -12.00 60.00
10.00 -12.00 65.00
10.00 -8.00 -75.00
10.00 -8.00 -70.00
10.00 -8.00 -65.00
10.00 -8.00 -60.00
10.00 -8.00 -55.00
10.00 -8.00 -50.00
10.00 -8.00 -45.00
10.00 -8.00 -40.00
10.00 -8.00 -35.00
10.00 -8.00 -30.00
10.00 -8.00 -25.00
10.00 -8.00 -20.00
10.00 -8.00 -15.00
10.00 -8.00 -10.00
10.00 -8.00 -5.00
10.00 -8.00 0.00
10.00 -8.00 5.00
10.00 -8.00 10.00
10.00 -8.00 15.00
10.00 -8.00 20.00
10.00 -8.00 25.00
10.00 -8.00 30.00
10.00 -8.00 35.00
10.00 -8.00 40.00
10.00 -8.00 45.00
10.00 -8.00 50.00
10.00 -8.00 55.00
10.00 -8.00 60.00
10.00 -8.00 65.00
10.00 -4.00 -75.00
10.00 -4.00 -70.00
10.00 -4.00 -65.00
10.00 -4.00 -60.00
10.00 -4.00 -55.00
10.00 -4.00 -50.00
10.00 -4.00 -45.00
10.00 -4.00 -40.00
10.00 -4.00 -35.00
10.00 -4.00 -30.00
10.00 -4.00 -25.00
10.00 -4.00 -20.00
10.00 -4.00 -15.00
10.00 -4.00 -10.00
10.00 -4.00 -5.00
10.00 -4.00 0.00
10.00 -4.00 5.00
10.00 -4.00 10.00
10.00 -4.00 15.00
10.00 -4.00 20.00
10.00 -4.00 25.00
10.00 -4.00 30.00
10.00 -4.00 35.00
10.00 -4.00 40.00
10.00 -4.00 45.00
10.00 -4.00 50.00
10.00 -4.00 55.00
10.00 -4.00 60.00
10.00 -4.00 65.00
10.00 0.00 -75.00
10.00 0.00 -70.00
10.00 0.00 -65.00
10.00 0.00 -60.00
10.00 0.00 -55.00
10.00 0.00 -50.00
10.00 0.00 -45.00
10.00 0.00 -40.00
10.00 0.00 -35.00
10.00 0.00 -30.00
10.00 0.00 -25.00
10.00 0.00 -20.00
10.00 0.00 -15.00
10.00 0.00 -10.00
10.00 0.00 -5.00
10.00 0.00 0.00
10.00 0.00 5.00
10.00 0.00 10.00
10.00 0.00 15.00
10.00 0.00 20.00
10.00 0.00 25.00
10.00 0.00 30.00
10.00 0.00 35.00
10.00 0.00 40.00
10.00 0.00 45.00
10.00 0.00 50.00
10.00 0.00 55.00
10.00 0.00 60.00
10.00 0.00 65.00
10.00 4.00 -75.00
10.00 4.00 -70.00
10.00 4.00 -65.00
10.00 4.00 -60.00
10.00 4.00 -55.00
10.00 4.00 -50.00
10.00 4.00 -45.00
10.00 4.00 -40.00
10.00 4.00 -35.00
10.00 4.00 -30.00
10.00 4.00 -25.00
10.00 4.00 -20.00
10.00 4.00 -15.00
10.00 4.00 -10.00
10.00 4.00 -5.00
10.00 4.00 0.00
10.00 4.00 5.00
10.00 4.00 10.00
10.00 4.00 15.00
10.00 4.00 20.00
10.00 4.00 25.00
10.00 4.00 30.00
10.00 4.00 35.00
10.00 4.00 40.00
10.00 4.00 45.00
10.00 4.00 50.00
10.00 4.00 55.00
10.00 4.00 60.00
10.00 4.00 65.00
10.00 8.00 -75.00
10.00 8.00 -70.00
10.00 8.00 -65.00
10.00 8.00 -60.00
10.00 8.00 -55.00
10.00 8.00 -50.00
10.00 8.00 -45.00
10.00 8.00 -40.00
10.00 8.00 -35.00
10.00 8.00 -30.00
10.00 8.00 -25.00
10.00 8.00 -20.00
10.00 8.00 -15.00
10.00 8.00 -10.00
10.00 8.00 -5.00
10.00 8.00 0.00
10.00 8.00 5.00
10.00 8.00 10.00
10.00 8.00 15.00
10.00 8.00 20.00
10.00 8.00 25.00
10.00 8.00 30.00
10.00 8.00 35.00
10.00 8.00 40.00
10.00 8.00 45.00
10.00 8.00 50.00
10.00 8.00 55.00
10.00 8.00 60.00
10.00 8.00 65.00
10.00 12.00 -75.00
10.00 12.00 -70.00
10.00 12.00 -65.00
10.00 12.00 -60.00
10.00 12.00 -55.00
10.00 12.00 -50.00
10.00 12.00 -45.00
10.00 12.00 -40.00
10.00 12.00 -35.00
10.00 12.00 -30.00
10.00 12.00 -25.00
10.00 12.00 -20.00
10.00 12.00 -15.00
10.00 12.00 -10.00
10.00 12.00 -5.00
10.00 12.00 0.00
10.00 12.00 5.00
10.00 12.00 10.00
10.00 12.00 15.00
10.00 12.00 20.00
10.00 12.00 25.00
10.00 12.00 30.00
10.00 12.00 35.00
10.00 12.00 40.00
10.00 12.00 45.00
10.00 12.00 50.00
10.00 12.00 55.00
10.00 12.00 60.00
10.00 12.00 65.00
10.00 16.00 -75.00
10.00 16.00 -70.00
10.00 16.00 -65.00
10.00 16.00 -60.00
10.00 16.00 -55.00
10.00 16.00 -50.00
10.00 16.00 -45.00
10.00 16.00 -40.00
10.00 16.00 -35.00
10.00 16.00 -30.00
10.00 16.00 -25.00
10.00 16.00 -20.00
10.00 16.00 -15.00
10.00 16.00 -10.00
10.00 16.00 -5.00
10.00 16.00 0.00
10.00 16.00 5.00
10.00 16.00 10.00
10.00 16.00 15.00
10.00 16.00 20.00
10.00 16.00 25.00
10.00 16.00 30.00
10.00 16.00 35.00
10.00 16.00 40.00
10.00 16.00 45.00
10.00 16.00 50.00
10.00 16.00 55.00
10.00 16.00 60.00
10.00 16.00 65.00
10.00 20.00 -75.00
10.00 20.00 -70.00
10.00 20.00 -65.00
10.00 20.00 -60.00
10.00 20.00 -55.00
10.00 20.00 -50.00
10.00 20.00 -45.00
10.00 20.00 -40.00
10.00 20.00 -35.00
10.00 20.00 -30.00
10.00 20.00 -25.00
10.00 20.00 -20.00
10.00 20.00 -15.00
10.00 20.00 -10.00
10.00 20.00 -5.00
10.00 20.00 0.00
10.00 20.00 5.00
10.00 20.00 10.00
10.00 20.00 15.00
10.00 20.00 20.00
10.00 20.00 25.00
10.00 20.00 30.00
10.00 20.00 35.00
10.00 20.00 40.00
10.00 20.00 45.00
10.00 20.00 50.00
10.00 20.00 55.00
10.00 20.00 60.00
10.00 20.00 65.00
10.00 24.00 -75.00
10.00 24.00 -70.00
10.00 24.00 -65.00
10.00 24.00 -60.00
10.00 24.00 -55.00
10.00 24.00 -50.00
10.00 24.00 -45.00
10.00 24.00 -40.00
10.00 24.00 -35.00
10.00 24.00 -30.00
10.00 24.00 -25.00
10.00 24.00 -20.00
10.00 24.00 -15.00
10.00 24.00 -10.00
10.00 24.00 -5.00
10.00 24.00 0.00
10.00 24.00 5.00
10.00 24.00 10.00
10.00 24.00 15.00
10.00 24.00 20.00
10.00 24.00 25.00
10.00 24.00 30.00
10.00 24.00 35.00
10.00 24.00 40.00
10.00 24.00 45.00
10.00 24.00 50.00
10.00 24.00 55.00
10.00 24.00 60.00
10.00 24.00 65.00
15.00 -12.00 -75.00
15.00 -12.00 -70.00
15.00 -12.00 -65.00
15.00 -12.00 -60.00
15.00 -12.00 -55.00
15.00 -12.00 -50.00
15.00 -12.00 -45.00
15.00 -12.00 -40.00
15.00 -12.00 -35.00
15.00 -12.00 -30.00
15.00 -12.00 -25.00
15.00 -12.00 -20.00
15.00 -12.00 -15.00
15.00 -12.00 -10.00
15.00 -12.00 -5.00
15.00 -12.00 0.00
15.00 -12.00 5.00
15.00 -12.00 10.00
15.00 -12.00 15.00
15.00 -12.00 20.00
15.00 -12.00 25.00
15.00 -12.00 30.00
15.00 -12.00 35.00
15.00 -12.00 40.00
15.00 -12.00 45.00
15.00 -12.00 50.00
15.00 -12.00 55.00
15.00 -12.00 60.00
15.00 -12.00 65.00
15.00 -8.00 -75.00
15.00 -8.00 -70.00
15.00 -8.00 -65.00
15.00 -8.00 -60.00
15.00 -8.00 -55.00
15.00 -8.00 -50.00
15.00 -8.00 -45.00
15.00 -8.00 -40.00
15.00 -8.00 -35.00
15.00 -8.00 -30.00
15.00 -8.00 -25.00
15.00 -8.00 -20.00
15.00 -8.00 -15.00
15.00 -8.00 -10.00
15.00 -8.00 -5.00
15.00 -8.00 0.00
15.00 -8.00 5.00
15.00 -8.00 10.00
15.00 -8.00 15.00
15.00 -8.00 20.00
15.00 -8.00 25.00
15.00 -8.00 30.00
15.00 -8.00 35.00
15.00 -8.00 40.00
15.00 -8.00 45.00
15.00 -8.00 50.00
15.00 -8.00 55.00
15.00 -8.00 60.00
15.00 -8.00 65.00
15.00 -4.00 -75.00
15.00 -4.00 -70.00
15.00 -4.00 -65.00
15.00 -4.00 -60.00
15.00 -4.00 -55.00
15.00 -4.00 -50.00
15.00 -4.00 -45.00
15.00 -4.00 -40.00
15.00 -4.00 -35.00
15.00 -4.00 -30.00
15.00 -4.00 -25.00
15.00 -4.00 -20.00
15.00 -4.00 -15.00
15.00 -4.00 -10.00
15.00 -4.00 -5.00
15.00 -4.00 0.00
15.00 -4.00 5.00
15.00 -4.00 10.00
15.00 -4.00 15.00
15.00 -4.00 20.00
15.00 -4.00 25.00
15.00 -4.00 30.00
15.00 -4.00 35.00
15.00 -4.00 40.00
15.00 -4.00 45.00
15.00 -4.00 50.00
15.00 -4.00 55.00
15.00 -4.00 60.00
15.00 -4.00 65.00
15.00 0.00 -75.00
15.00 0.00 -70.00
15.00 0.00 -65.00
15.00 0.00 -60.00
15.00 0.00 -55.00
15.00 0.00 -50.00
15.00 0.00 -45.00
15.00 0.00 -40.00
15.00 0.00 -35.00
15.00 0.00 -30.00
15.00 0.00 -25.00
15.00 0.00 -20.00
15.00 0.00 -15.00
15.00 0.00 -10.00
15.00 0.00 -5.00
15.00 0.00 0.00
15.00 0.00 5.00
15.00 0.00 10.00
15.00 0.00 15.00
15.00 0.00 20.00
15.00 0.00 25.00
15.00 0.00 30.00
15.00 0.00 35.00
15.00 0.00 40.00
15.00 0.00 45.00
15.00 0.00 50.00
15.00 0.00 55.00
15.00 0.00 60.00
15.00 0.00 65.00
15.00 4.00 -75.00
15.00 4.00 -70.00
15.00 4.00 -65.00
15.00 4.00 -60.00
15.00 4.00 -55.00
15.00 4.00 -50.00
15.00 4.00 -45.00
15.00 4.00 -40.00
15.00 4.00 -35.00
15.00 4.00 -30.00
15.00 4.00 -25.00
15.00 4.00 -20.00
15.00 4.00 -15.00
15.00 4.00 -10.00
15.00 4.00 -5.00
15.00 4.00 0.00
15.00 4.00 5.00
15.00 4.00 10.00
15.00 4.00 15.00
15.00 4.00 20.00
15.00 4.00 25.00
15.00 4.00 30.00
15.00 4.00 35.00
15.00 4.00 40.00
15.00 4.00 45.00
15.00 4.00 50.00
15.00 4.00 55.00
15.00 4.00 60.00
15.00 4.00 65.00
15.00 8.00 -75.00
15.00 8.00 -70.00
15.00 8.00 -65.00
15.00 8.00 -60.00
15.00 8.00 -55.00
15.00 8.00 -50.00
15.00 8.00 -45.00
15.00 8.00 -40.00
15.00 8.00 -35.00
15.00 8.00 -30.00
15.00 8.00 -25.00
15.00 8.00 -20.00
15.00 8.00 -15.00
15.00 8.00 -10.00
15.00 8.00 -5.00
15.00 8.00 0.00
15.00 8.00 5.00
15.00 8.00 10.00
15.00 8.00 15.00
15.00 8.00 20.00
15.00 8.00 25.00
15.00 8.00 30.00
15.00 8.00 35.00
15.00 8.00 40.00
15.00 8.00 45.00
15.00 8.00 50.00
15.00 8.00 55.00
15.00 8.00 60.00
15.00 8.00 65.00
15.00 12.00 -75.00
15.00 12.00 -70.00
15.00 12.00 -65.00
15.00 12.00 -60.00
15.00 12.00 -55.00
15.00 12.00 -50.00
15.00 12.00 -45.00
15.00 12.00 -40.00
15.00 12.00 -35.00
15.00 12.00 -30.00
15.00 12.00 -25.00
15.00 12.00 -20.00
15.00 12.00 -15.00
15.00 12.00 -10.00
15.00 12.00 -5.00
15.00 12.00 0.00
15.00 12.00 5.00
15.00 12.00 10.00
15.00 12.00 15.00
15.00 12.00 20.00
15.00 12.00 25.00
15.00 12.00 30.00
15.00 12.00 35.00
15.00 12.00 40.00
15.00 12.00 45.00
15.00 12.00 50.00
15.00 12.00 55.00
15.00 12.00 60.00
15.00 12.00 65.00
15.00 16.00 -75.00
15.00 16.00 -70.00
15.00 16.00 -65.00
15.00 16.00 -60.00
15.00 16.00 -55.00
15.00 16.00 -50.00
15.00 16.00 -45.00
15.00 16.00 -40.00
15.00 16.00 -35.00
15.00 16.00 -30.00
15.00 16.00 -25.00
15.00 16.00 -20.00
15.00 16.00 -15.00
15.00 16.00 -10.00
15.00 16.00 -5.00
15.00 16.00 0.00
15.00 16.00 5.00
15.00 16.00 10.00
15.00 16.00 15.00
15.00 16.00 20.00
15.00 16.00 25.00
15.00 16.00 30.00
15.00 16.00 35.00
15.00 16.00 40.00
15.00 16.00 45.00
15.00 16.00 50.00
15.00 16.00 55.00
15.00 16.00 60.00
15.00 16.00 65.00
15.00 20.00 -75.00
15.00 20.00 -70.00
15.00 20.00 -65.00
15.00 20.00 -60.00
15.00 20.00 -55.00
15.00 20.00 -50.00
15.00 20.00 -45.00
15.00 20.00 -40.00
15.00 20.00 -35.00
15.00 20.00 -30.00
15.00 20.00 -25.00
15.00 20.00 -20.00
15.00 20.00 -15.00
15.00 20.00 -10.00
15.00 20.00 -5.00
15.00 20.00 0.00
15.00 20.00 5.00
15.00 20.00 10.00
15.00 20.00 15.00
15.00 20.00 20.00
15.00 20.00 25.00
15.00 20.00 30.00
15.00 20.00 35.00
15.00 20.00 40.00
15.00 20.00 45.00
15.00 20.00 50.00
15.00 20.00 55.00
15.00 20.00 60.00
15.00 20.00 65.00
15.00 24.00 -75.00
15.00 24.00 -70.00
15.00 24.00 -65.00
15.00 24.00 -60.00
15.00 24.00 -55.00
15.00 24.00 -50.00
15.00 24.00 -45.00
15.00 24.00 -40.00
15.00 24.00 -35.00
15.00 24.00 -30.00
15.00 24.00 -25.00
15.00 24.00 -20.00
15.00 24.00 -15.00
15.00 24.00 -10.00
15.00 24.00 -5.00
15.00 24.00 0.00
15.00 24.00 5.00
15.00 24.00 10.00
15.00 24.00 15.00
15.00 24.00 20.00
15.00 24.00 25.00
15.00 24.00 30.00
15.00 24.00 35.00
15.00 24.00 40.00
15.00 24.00 45.00
15.00 24.00 50.00
15.00 24.00 55.00
15.00 24.00 60.00
15.00 24.00 65.00
20.00 -12.00 -75.00
20.00 -12.00 -70.00
20.00 -12.00 -65.00
20.00 -12.00 -60.00
20.00 -12.00 -55.00
20.00 -12.00 -50.00
20.00 -12.00 -45.00
20.00 -12.00 -40.00
20.00 -12.00 -35.00
20.00 -12.00 -30.00
20.00 -12.00 -25.00
20.00 -12.00 -20.00
20.00 -12.00 -15.00
20.00 -12.00 -10.00
20.00 -12.00 -5.00
20.00 -12.00 0.00
20.00 -12.00 5.00
20.00 -12.00 10.00
20.00 -12.00 15.00
20.00 -12.00 20.00
20.00 -12.00 25.00
20.00 -12.00 30.00
20.00 -12.00 35.00
20.00 -12.00 40.00
20.00 -12.00 45.00
20.00 -12.00 50.00
20.00 -12.00 55.00
20.00 -12.00 60.00
20.00 -12.00 65.00
20.00 -8.00 -75.00
20.00 -8.00 -70.00
20.00 -8.00 -65.00
20.00 -8.00 -60.00
20.00 -8.00 -55.00
20.00 -8.00 -50.00
20.00 -8.00 -45.00
20.00 -8.00 -40.00
20.00 -8.00 -35.00
20.00 -8.00 -30.00
20.00 -8.00 -25.00
20.00 -8.00 -20.00
20.00 -8.00 -15.00
20.00 -8.00 -10.00
20.00 -8.00 -5.00
20.00 -8.00 0.00
20.00 -8.00 5.00
20.00 -8.00 10.00
20.00 -8.00 15.00
20.00 -8.00 20.00
20.00 -8.00 25.00
20.00 -8.00 30.00
20.00 -8.00 35.00
20.00 -8.00 40.00
20.00 -8.00 45.00
20.00 -8.00 50.00
20.00 -8.00 55.00
20.00 -8.00 60.00
20.00 -8.00 65.00
20.00 -4.00 -75.00
20.00 -4.00 -70.00
20.00 -4.00 -65.00
20.00 -4.00 -60.00
20.00 -4.00 -55.00
20.00 -4.00 -50.00
20.00 -4.00 -45.00
20.00 -4.00 -40.00
20.00 -4.00 -35.00
20.00 -4.00 -30.00
20.00 -4.00 -25.00
20.00 -4.00 -20.00
20.00 -4.00 -15.00
20.00 -4.00 -10.00
20.00 -4.00 -5.00
20.00 -4.00 0.00
20.00 -4.00 5.00
20.00 -4.00 10.00
20.00 -4.00 15.00
20.00 -4.00 20.00
20.00 -4.00 25.00
20.00 -4.00 30.00
20.00 -4.00 35.00
20.00 -4.00 40.00
20.00 -4.00 45.00
20.00 -4.00 50.00
20.00 -4.00 55.00
20.00 -4.00 60.00
20.00 -4.00 65.00
20.00 0.00 -75.00
20.00 0.00 -70.00
20.00 0.00 -65.00
20.00 0.00 -60.00
20.00 0.00 -55.00
20.00 0.00 -50.00
20.00 0.00 -45.00
20.00 0.00 -40.00
20.00 0.00 -35.00
20.00 0.00 -30.00
20.00 0.00 -25.00
20.00 0.00 -20.00
20.00 0.00 -15.00
20.00 0.00 -10.00
20.00 0.00 -5.00
20.00 0.00 0.00
20.00 0.00 5.00
20.00 0.00 10.00
20.00 0.00 15.00
20.00 0.00 20.00
20.00 0.00 25.00
20.00 0.00 30.00
20.00 0.00 35.00
20.00 0.00 40.00
20.00 0.00 45.00
20.00 0.00 50.00
20.00 0.00 55.00
20.00 0.00 60.00
20.00 0.00 65.00
20.00 4.00 -75.00
20.00 4.00 -70.00
20.00 4.00 -65.00
20.00 4.00 -60.00
20.00 4.00 -55.00
20.00 4.00 -50.00
20.00 4.00 -45.00
20.00 4.00 -40.00
20.00 4.00 -35.00
20.00 4.00 -30.00
20.00 4.00 -25.00
20.00 4.00 -20.00
20.00 4.00 -15.00
20.00 4.00 -10.00
20.00 4.00 -5.00
20.00 4.00 0.00
20.00 4.00 5.00
20.00 4.00 10.00
20.00 4.00 15.00
20.00 4.00 20.00
20.00 4.00 25.00
20.00 4.00 30.00
20.00 4.00 35.00
20.00 4.00 40.00
20.00 4.00 45.00
20.00 4.00 50.00
20.00 4.00 55.00
20.00 4.00 60.00
20.00 4.00 65.00
20.00 8.00 -75.00
20.00 8.00 -70.00
20.00 8.00 -65.00
20.00 8.00 -60.00
20.00 8.00 -55.00
20.00 8.00 -50.00
20.00 8.00 -45.00
20.00 8.00 -40.00
20.00 8.00 -35.00
20.00 8.00 -30.00
20.00 8.00 -25.00
20.00 8.00 -20.00
20.00 8.00 -15.00
20.00 8.00 -10.00
20.00 8.00 -5.00
20.00 8.00 0.00
20.00 8.00 5.00
20.00 8.00 10.00
20.00 8.00 15.00
20.00 8.00 20.00
20.00 8.00 25.00
20.00 8.00 30.00
20.00 8.00 35.00
20.00 8.00 40.00
20.00 8.00 45.00
20.00 8.00 50.00
20.00 8.00 55.00
20.00 8.00 60.00
20.00 8.00 65.00
20.00 12.00 -75.00
20.00 12.00 -70.00
20.00 12.00 -65.00
20.00 12.00 -60.00
20.00 12.00 -55.00
20.00 12.00 -50.00
20.00 12.00 -45.00
20.00 12.00 -40.00
20.00 12.00 -35.00
20.00 12.00 -30.00
20.00 12.00 -25.00
20.00 12.00 -20.00
20.00 12.00 -15.00
20.00 12.00 -10.00
20.00 12.00 -5.00
20.00 12.00 0.00
20.00 12.00 5.00
20.00 12.00 10.00
20.00 12.00 15.00
20.00 12.00 20.00
20.00 12.00 25.00
20.00 12.00 30.00
20.00 12.00 35.00
20.00 12.00 40.00
20.00 12.00 45.00
20.00 12.00 50.00
20.00 12.00 55.00
20.00 12.00 60.00
20.00 12.00 65.00
20.00 16.00 -75.00
20.00 16.00 -70.00
20.00 16.00 -65.00
20.00 16.00 -60.00
20.00 16.00 -55.00
20.00 16.00 -50.00
20.00 16.00 -45.00
20.00 16.00 -40.00
20.00 16.00 -35.00
20.00 16.00 -30.00
20.00 16.00 -25.00
20.00 16.00 -20.00
20.00 16.00 -15.00
20.00 16.00 -10.00
20.00 16.00 -5.00
20.00 16.00 0.00
20.00 16.00 5.00
20.00 16.00 10.00
20.00 16.00 15.00
20.00 16.00 20.00
20.00 16.00 25.00
20.00 16.00 30.00
20.00 16.00 35.00
20.00 16.00 40.00
20.00 16.00 45.00
20.00 16.00 50.00
20.00 16.00 55.00
20.00 16.00 60.00
20.00 16.00 65.00
20.00 20.00 -75.00
20.00 20.00 -70.00
20.00 20.00 -65.00
20.00 20.00 -60.00
20.00 20.00 -55.00
20.00 20.00 -50.00
20.00 20.00 -45.00
20.00 20.00 -40.00
20.00 20.00 -35.00
20.00 20.00 -30.00
20.00 20.00 -25.00
20.00 20.00 -20.00
20.00 20.00 -15.00
20.00 20.00 -10.00
20.00 20.00 -5.00
20.00 20.00 0.00
20.00 20.00 5.00
20.00 20.00 10.00
20.00 20.00 15.00
20.00 20.00 20.00
20.00 20.00 25.00
20.00 20.00 30.00
20.00 20.00 35.00
20.00 20.00 40.00
20.00 20.00 45.00
20.00 20.00 50.00
20.00 20.00 55.00
20.00 20.00 60.00
20.00 20.00 65.00
20.00 24.00 -75.00
20.00 24.00 -70.00
20.00 24.00 -65.00
20.00 24.00 -60.00
20.00 24.00 -55.00
20.00 24.00 -50.00
20.00 24.00 -45.00
20.00 24.00 -40.00
20.00 24.00 -35.00
20.00 24.00 -30.00
20.00 24.00 -25.00
20.00 24.00 -20.00
20.00 24.00 -15.00
20.00 24.00 -10.00
20.00 24.00 -5.00
20.00 24.00 0.00
20.00 24.00 5.00
20.00 24.00 10.00
20.00 24.00 15.00
20.00 24.00 20.00
20.00 24.00 25.00
20.00 24.00 30.00
20.00 24.00 35.00
20.00 24.00 40.00
20.00 24.00 45.00
20.00 24.00 50.00
20.00 24.00 55.00
20.00 24.00 60.00
20.00 24.00 65.00
25.00 -12.00 -75.00
25.00 -12.00 -70.00
25.00 -12.00 -65.00
25.00 -12.00 -60.00
25.00 -12.00 -55.00
25.00 -12.00 -50.00
25.00 -12.00 -45.00
25.00 -12.00 -40.00
25.00 -12.00 -35.00
25.00 -12.00 -30.00
25.00 -12.00 -25.00
25.00 -12.00 -20.00
25.00 -12.00 -15.00
25.00 -12.00 -10.00
25.00 -12.00 -5.00
25.00 -12.00 0.00
25.00 -12.00 5.00
25.00 -12.00 10.00
25.00 -12.00 15.00
25.00 -12.00 20.00
25.00 -12.00 25.00
25.00 -12.00 30.00
25.00 -12.00 35.00
25.00 -12.00 40.00
25.00 -12.00 45.00
25.00 -12.00 50.00
25.00 -12.00 55.00
25.00 -12.00 60.00
25.00 -12.00 65.00
25.00 -8.00 -75.00
25.00 -8.00 -70.00
25.00 -8.00 -65.00
25.00 -8.00 -60.00
25.00 -8.00 -55.00
25.00 -8.00 -50.00
25.00 -8.00 -45.00
25.00 -8.00 -40.00
25.00 -8.00 -35.00
25.00 -8.00 -30.00
25.00 -8.00 -25.00
25.00 -8.00 -20.00
25.00 -8.00 -15.00
25.00 -8.00 -10.00
25.00 -8.00 -5.00
25.00 -8.00 0.00
25.00 -8.00 5.00
25.00 -8.00 10.00
25.00 -8.00 15.00
25.00 -8.00 20.00
25.00 -8.00 25.00
25.00 -8.00 30.00
25.00 -8.00 35.00
25.00 -8.00 40.00
25.00 -8.00 45.00
25.00 -8.00 50.00
25.00 -8.00 55.00
25.00 -8.00 60.00
25.00 -8.00 65.00
25.00 -4.00 -75.00
25.00 -4.00 -70.00
25.00 -4.00 -65.00
25.00 -4.00 -60.00
25.00 -4.00 -55.00
25.00 -4.00 -50.00
25.00 -4.00 -45.00
25.00 -4.00 -40.00
25.00 -4.00 -35.00
25.00 -4.00 -30.00
25.00 -4.00 -25.00
25.00 -4.00 -20.00
25.00 -4.00 -15.00
25.00 -4.00 -10.00
25.00 -4.00 -5.00
25.00 -4.00 0.00
25.00 -4.00 5.00
25.00 -4.00 10.00
25.00 -4.00 15.00
25.00 -4.00 20.00
25.00 -4.00 25.00
25.00 -4.00 30.00
25.00 -4.00 35.00
25.00 -4.00 40.00
25.00 -4.00 45.00
25.00 -4.00 50.00
25.00 -4.00 55.00
25.00 -4.00 60.00
25.00 -4.00 65.00
25.00 0.00 -75.00
25.00 0.00 -70.00
25.00 0.00 -65.00
25.00 0.00 -60.00
25.00 0.00 -55.00
25.00 0.00 -50.00
25.00 0.00 -45.00
25.00 0.00 -40.00
25.00 0.00 -35.00
25.00 0.00 -30.00
25.00 0.00 -25.00
25.00 0.00 -20.00
25.00 0.00 -15.00
25.00 0.00 -10.00
25.00 0.00 -5.00
25.00 0.00 0.00
25.00 0.00 5.00
25.00 0.00 10.00
25.00 0.00 15.00
25.00 0.00 20.00
25.00 0.00 25.00
25.00 0.00 30.00
25.00 0.00 35.00
25.00 0.00 40.00
25.00 0.00 45.00
25.00 0.00 50.00
25.00 0.00 55.00
25.00 0.00 60.00
25.00 0.00 65.00
25.00 4.00 -75.00
25.00 4.00 -70.00
25.00 4.00 -65.00
25.00 4.00 -60.00
25.00 4.00 -55.00
25.00 4.00 -50.00
25.00 4.00 -45.00
25.00 4.00 -40.00
25.00 4.00 -35.00
25.00 4.00 -30.00
25.00 4.00 -25.00
25.00 4.00 -20.00
25.00 4.00 -15.00
25.00 4.00 -10.00
25.00 4.00 -5.00
25.00 4.00 0.00
25.00 4.00 5.00
25.00 4.00 10.00
25.00 4.00 15.00
25.00 4.00 20.00
25.00 4.00 25.00
25.00 4.00 30.00
25.00 4.00 35.00
25.00 4.00 40.00
25.00 4.00 45.00
25.00 4.00 50.00
25.00 4.00 55.00
25.00 4.00 60.00
25.00 4.00 65.00
25.00 8.00 -75.00
25.00 8.00 -70.00
25.00 8.00 -65.00
25.00 8.00 -60.00
25.00 8.00 -55.00
25.00 8.00 -50.00
25.00 8.00 -45.00
25.00 8.00 -40.00
25.00 8.00 -35.00
25.00 8.00 -30.00
25.00 8.00 -25.00
25.00 8.00 -20.00
25.00 8.00 -15.00
25.00 8.00 -10.00
25.00 8.00 -5.00
25.00 8.00 0.00
25.00 8.00 5.00
25.00 8.00 10.00
25.00 8.00 15.00
25.00 8.00 20.00
25.00 8.00 25.00
25.00 8.00 30.00
25.00 8.00 35.00
25.00 8.00 40.00
25.00 8.00 45.00
25.00 8.00 50.00
25.00 8.00 55.00
25.00 8.00 60.00
25.00 8.00 65.00
25.00 12.00 -75.00
25.00 12.00 -70.00
25.00 12.00 -65.00
25.00 12.00 -60.00
25.00 12.00 -55.00
25.00 12.00 -50.00
25.00 12.00 -45.00
25.00 12.00 -40.00
25.00 12.00 -35.00
25.00 12.00 -30.00
25.00 12.00 -25.00
25.00 12.00 -20.00
25.00 12.00 -15.00
25.00 12.00 -10.00
25.00 12.00 -5.00
25.00 12.00 0.00
25.00 12.00 5.00
25.00 12.00 10.00
25.00 12.00 15.00
25.00 12.00 20.00
25.00 12.00 25.00
25.00 12.00 30.00
25.00 12.00 35.00
25.00 12.00 40.00
25.00 12.00 45.00
25.00 12.00 50.00
25.00 12.00 55.00
25.00 12.00 60.00
25.00 12.00 65.00
25.00 16.00 -75.00
25.00 16.00 -70.00
25.00 16.00 -65.00
25.00 16.00 -60.00
25.00 16.00 -55.00
25.00 16.00 -50.00
25.00 16.00 -45.00
25.00 16.00 -40.00
25.00 16.00 -35.00
25.00 16.00 -30.00
25.00 16.00 -25.00
25.00 16.00 -20.00
25.00 16.00 -15.00
25.00 16.00 -10.00
25.00 16.00 -5.00
25.00 16.00 0.00
25.00 16.00 5.00
25.00 16.00 10.00
25.00 16.00 15.00
25.00 16.00 20.00
25.00 16.00 25.00
25.00 16.00 30.00
25.00 16.00 35.00
25.00 16.00 40.00
25.00 16.00 45.00
25.00 16.00 50.00
25.00 16.00 55.00
25.00 16.00 60.00
25.00 16.00 65.00
25.00 20.00 -75.00
25.00 20.00 -70.00
25.00 20.00 -65.00
25.00 20.00 -60.00
25.00 20.00 -55.00
25.00 20.00 -50.00
25.00 20.00 -45.00
25.00 20.00 -40.00
25.00 20.00 -35.00
25.00 20.00 -30.00
25.00 20.00 -25.00
25.00 20.00 -20.00
25.00 20.00 -15.00
25.00 20.00 -10.00
25.00 20.00 -5.00
25.00 20.00 0.00
25.00 20.00 5.00
25.00 20.00 10.00
25.00 20.00 15.00
25.00 20.00 20.00
25.00 20.00 25.00
25.00 20.00 30.00
25.00 20.00 35.00
25.00 20.00 40.00
25.00 20.00 45.00
25.00 20.00 50.00
25.00 20.00 55.00
25.00 20.00 60.00
25.00 20.00 65.00
25.00 24.00 -75.00
25.00 24.00 -70.00
25.00 24.00 -65.00
25.00 24.00 -60.00
25.00 24.00 -55.00
25.00 24.00 -50.00
25.00 24.00 -45.00
25.00 24.00 -40.00
25.00 24.00 -35.00
25.00 24.00 -30.00
25.00 24.00 -25.00
25.00 24.00 -20.00
25.00 24.00 -15.00
25.00 24.00 -10.00
25.00 24.00 -5.00
25.00 24.00 0.00
25.00 24.00 5.00
25.00 24.00 10.00
25.00 24.00 15.00
25.00 24.00 20.00
25.00 24.00 25.00
25.00 24.00 30.00
25.00 24.00 35.00
25.00 24.00 40.00
25.00 24.00 45.00
25.00 24.00 50.00
25.00 24.00 55.00
25.00 24.00 60.00
25.00 24.00 65.00
30.00 -12.00 -75.00
30.00 -12.00 -70.00
30.00 -12.00 -65.00
30.00 -12.00 -60.00
30.00 -12.00 -55.00
30.00 -12.00 -50.00
30.00 -12.00 -45.00
30.00 -12.00 -40.00
30.00 -12.00 -35.00
30.00 -12.00 -30.00
30.00 -12.00 -25.00
30.00 -12.00 -20.00
30.00 -12.00 -15.00
30.00 -12.00 -10.00
30.00 -12.00 -5.00
30.00 -12.00 0.00
30.00 -12.00 5.00
30.00 -12.00 10.00
30.00 -12.00 15.00
30.00 -12.00 20.00
30.00 -12.00 25.00
30.00 -12.00 30.00
30.00 -12.00 35.00
30.00 -12.00 40.00
30.00 -12.00 45.00
30.00 -12.00 50.00
30.00 -12.00 55.00
30.00 -12.00 60.00
30.00 -12.00 65.00
30.00 -8.00 -75.00
30.00 -8.00 -70.00
30.00 -8.00 -65.00
30.00 -8.00 -60.00
30.00 -8.00 -55.00
30.00 -8.00 -50.00
30.00 -8.00 -45.00
30.00 -8.00 -40.00
30.00 -8.00 -35.00
30.00 -8.00 -30.00
30.00 -8.00 -25.00
30.00 -8.00 -20.00
30.00 -8.00 -15.00
30.00 -8.00 -10.00
30.00 -8.00 -5.00
30.00 -8.00 0.00
30.00 -8.00 5.00
30.00 -8.00 10.00
30.00 -8.00 15.00
30.00 -8.00 20.00
30.00 -8.00 25.00
30.00 -8.00 30.00
30.00 -8.00 35.00
30.00 -8.00 40.00
30.00 -8.00 45.00
30.00 -8.00 50.00
30.00 -8.00 55.00
30.00 -8.00 60.00
30.00 -8.00 65.00
30.00 -4.00 -75.00
30.00 -4.00 -70.00
30.00 -4.00 -65.00
30.00 -4.00 -60.00
30.00 -4.00 -55.00
30.00 -4.00 -50.00
30.00 -4.00 -45.00
30.00 -4.00 -40.00
30.00 -4.00 -35.00
30.00 -4.00 -30.00
30.00 -4.00 -25.00
30.00 -4.00 -20.00
30.00 -4.00 -15.00
30.00 -4.00 -10.00
30.00 -4.00 -5.00
30.00 -4.00 0.00
30.00 -4.00 5.00
30.00 -4.00 10.00
30.00 -4.00 15.00
30.00 -4.00 20.00
30.00 -4.00 25.00
30.00 -4.00 30.00
30.00 -4.00 35.00
30.00 -4.00 40.00
30.00 -4.00 45.00
30.00 -4.00 50.00
30.00 -4.00 55.00
30.00 -4.00 60.00
30.00 -4.00 65.00
30.00 0.00 -75.00
30.00 0.00 -70.00
30.00 0.00 -65.00
30.00 0.00 -60.00
30.00 0.00 -55.00
30.00 0.00 -50.00
30.00 0.00 -45.00
30.00 0.00 -40.00
30.00 0.00 -35.00
30.00 0.00 -30.00
30.00 0.00 -25.00
30.00 0.00 -20.00
30.00 0.00 -15.00
30.00 0.00 -10.00
30.00 0.00 -5.00
30.00 0.00 0.00
30.00 0.00 5.00
30.00 0.00 10.00
30.00 0.00 15.00
30.00 0.00 20.00
30.00 0.00 25.00
30.00 0.00 30.00
30.00 0.00 35.00
30.00 0.00 40.00
30.00 0.00 45.00
30.00 0.00 50.00
30.00 0.00 55.00
30.00 0.00 60.00
30.00 0.00 65.00
30.00 4.00 -75.00
30.00 4.00 -70.00
30.00 4.00 -65.00
30.00 4.00 -60.00
30.00 4.00 -55.00
30.00 4.00 -50.00
30.00 4.00 -45.00
30.00 4.00 -40.00
30.00 4.00 -35.00
30.00 4.00 -30.00
30.00 4.00 -25.00
30.00 4.00 -20.00
30.00 4.00 -15.00
30.00 4.00 -10.00
30.00 4.00 -5.00
30.00 4.00 0.00
30.00 4.00 5.00
30.00 4.00 10.00
30.00 4.00 15.00
30.00 4.00 20.00
30.00 4.00 25.00
30.00 4.00 30.00
30.00 4.00 35.00
30.00 4.00 40.00
30.00 4.00 45.00
30.00 4.00 50.00
30.00 4.00 55.00
30.00 4.00 60.00
30.00 4.00 65.00
30.00 8.00 -75.00
30.00 8.00 -70.00
30.00 8.00 -65.00
30.00 8.00 -60.00
30.00 8.00 -55.00
30.00 8.00 -50.00
30.00 8.00 -45.00
30.00 8.00 -40.00
30.00 8.00 -35.00
30.00 8.00 -30.00
30.00 8.00 -25.00
30.00 8.00 -20.00
30.00 8.00 -15.00
30.00 8.00 -10.00
30.00 8.00 -5.00
30.00 8.00 0.00
30.00 8.00 5.00
30.00 8.00 10.00
30.00 8.00 15.00
30.00 8.00 20.00
30.00 8.00 25.00
30.00 8.00 30.00
30.00 8.00 35.00
30.00 8.00 40.00
30.00 8.00 45.00
30.00 8.00 50.00
30.00 8.00 55.00
30.00 8.00 60.00
30.00 8.00 65.00
30.00 12.00 -75.00
30.00 12.00 -70.00
30.00 12.00 -65.00
30.00 12.00 -60.00
30.00 12.00 -55.00
30.00 12.00 -50.00
30.00 12.00 -45.00
30.00 12.00 -40.00
30.00 12.00 -35.00
30.00 12.00 -30.00
30.00 12.00 -25.00
30.00 12.00 -20.00
30.00 12.00 -15.00
30.00 12.00 -10.00
30.00 12.00 -5.00
30.00 12.00 0.00
30.00 12.00 5.00
30.00 12.00 10.00
30.00 12.00 15.00
30.00 12.00 20.00
30.00 12.00 25.00
30.00 12.00 30.00
30.00 12.00 35.00
30.00 12.00 40.00
30.00 12.00 45.00
30.00 12.00 50.00
30.00 12.00 55.00
30.00 12.00 60.00
30.00 12.00 65.00
30.00 16.00 -75.00
30.00 16.00 -70.00
30.00 16.00 -65.00
30.00 16.00 -60.00
30.00 16.00 -55.00
30.00 16.00 -50.00
30.00 16.00 -45.00
30.00 16.00 -40.00
30.00 16.00 -35.00
30.00 16.00 -30.00
30.00 16.00 -25.00
30.00 16.00 -20.00
30.00 16.00 -15.00
30.00 16.00 -10.00
30.00 16.00 -5.00
30.00 16.00 0.00
30.00 16.00 5.00
30.00 16.00 10.00
30.00 16.00 15.00
30.00 16.00 20.00
30.00 16.00 25.00
30.00 16.00 30.00
30.00 16.00 35.00
30.00 16.00 40.00
30.00 16.00 45.00
30.00 16.00 50.00
30.00 16.00 55.00
30.00 16.00 60.00
30.00 16.00 65.00
30.00 20.00 -75.00
30.00 20.00 -70.00
30.00 20.00 -65.00
30.00 20.00 -60.00
30.00 20.00 -55.00
30.00 20.00 -50.00
30.00 20.00 -45.00
30.00 20.00 -40.00
30.00 20.00 -35.00
30.00 20.00 -30.00
30.00 20.00 -25.00
30.00 20.00 -20.00
30.00 20.00 -15.00
30.00 20.00 -10.00
30.00 20.00 -5.00
30.00 20.00 0.00
30.00 20.00 5.00
30.00 20.00 10.00
30.00 20.00 15.00
30.00 20.00 20.00
30.00 20.00 25.00
30.00 20.00 30.00
30.00 20.00 35.00
30.00 20.00 40.00
30.00 20.00 45.00
30.00 20.00 50.00
30.00 20.00 55.00
30.00 20.00 60.00
30.00 20.00 65.00
30.00 24.00 -75.00
30.00 24.00 -70.00
30.00 24.00 -65.00
30.00 24.00 -60.00
30.00 24.00 -55.00
30.00 24.00 -50.00
30.00 24.00 -45.00
30.00 24.00 -40.00
30.00 24.00 -35.00
30.00 24.00 -30.00
30.00 24.00 -25.00
30.00 24.00 -20.00
30.00 24.00 -15.00
30.00 24.00 -10.00
30.00 24.00 -5.00
30.00 24.00 0.00
30.00 24.00 5.00
30.00 24.00 10.00
30.00 24.00 15.00
30.00 24.00 20.00
30.00 24.00 25.00
30.00 24.00 30.00
30.00 24.00 35.00
30.00 24.00 40.00
30.00 24.00 45.00
30.00 24.00 50.00
30.00 24.00 55.00
30.00 24.00 60.00
30.00 24.00 65.00
